<?xml version="1.0" encoding="UTF-8" standalone="no"?><!DOCTYPE score-partwise PUBLIC "-//Recordare//DTD MusicXML 3.0 Partwise//EN" "http://www.musicxml.org/dtds/partwise.dtd"><score-partwise version="3.0"><identification><creator type="composer">Ikori Meimoto</creator><creator type="lyricist">N/A</creator><rights>Copyright, All rights reserved</rights><encoding><software>Flat</software><encoding-date>2019-04-01</encoding-date></encoding><source>https://flat.io/score/5b30cb4044817350b7ade5f5-theme-of-master-falcon-v2-pissed-knight-yb</source></identification><defaults><scaling><millimeters>7</millimeters><tenths>40</tenths></scaling><page-layout><page-height>1596.5714285714287</page-height><page-width>1233.7142857142858</page-width><page-margins type="both"><left-margin>72.57142857142857</left-margin><right-margin>72.57142857142857</right-margin><top-margin>72.57142857142857</top-margin><bottom-margin>72.57142857142857</bottom-margin></page-margins></page-layout><system-layout><system-distance>115.2</system-distance></system-layout><staff-layout><staff-distance>72.57142857142857</staff-distance></staff-layout></defaults><credit><credit-type>title</credit-type><credit-words>Theme of Master Falcon V.2 - Pissed Knight - YB</credit-words></credit><part-list><score-part id="P1"><part-name>Grand Piano</part-name><part-abbreviation>Pno.</part-abbreviation><score-instrument id="P1-I1"><instrument-name>Grand Piano</instrument-name></score-instrument><midi-instrument id="P1-I1"><midi-channel>1</midi-channel><midi-program>1</midi-program><volume>100</volume></midi-instrument></score-part></part-list><part id="P1"><measure number="1"><attributes><divisions>2</divisions><key><fifths>0</fifths></key><time><beats>4</beats><beat-type>4</beat-type></time><staves>2</staves><clef number="1"><sign>G</sign><line>2</line></clef><clef number="2"><sign>F</sign><line>4</line></clef><staff-details><staff-lines>5</staff-lines></staff-details></attributes><direction placement="below"><direction-type><dynamics><p/></dynamics></direction-type><staff>1</staff><sound dynamics="49"/></direction><direction placement="above"><direction-type><metronome><beat-unit>quarter</beat-unit><per-minute>160</per-minute></metronome></direction-type><staff>1</staff></direction><note><pitch><step>C</step><octave>4</octave></pitch><duration>1</duration><voice>1</voice><type>eighth</type><staff>1</staff><beam number="1">begin</beam></note><note><pitch><step>D</step><octave>4</octave></pitch><duration>1</duration><voice>1</voice><type>eighth</type><staff>1</staff><beam number="1">end</beam></note><note><pitch><step>D</step><octave>4</octave></pitch><duration>1</duration><voice>1</voice><type>eighth</type><staff>1</staff><beam number="1">begin</beam></note><note><pitch><step>D</step><octave>4</octave></pitch><duration>1</duration><voice>1</voice><type>eighth</type><staff>1</staff><beam number="1">end</beam></note><note><pitch><step>D</step><octave>4</octave></pitch><duration>1</duration><voice>1</voice><type>eighth</type><staff>1</staff><beam number="1">begin</beam></note><note><pitch><step>D</step><octave>4</octave></pitch><duration>1</duration><voice>1</voice><type>eighth</type><staff>1</staff><beam number="1">end</beam></note><note><pitch><step>D</step><octave>4</octave></pitch><duration>1</duration><voice>1</voice><type>eighth</type><staff>1</staff><beam number="1">begin</beam></note><note><pitch><step>C</step><octave>4</octave></pitch><duration>1</duration><voice>1</voice><type>eighth</type><staff>1</staff><beam number="1">end</beam></note><backup><duration>8</duration></backup><note><pitch><step>D</step><octave>2</octave></pitch><duration>8</duration><tie type="start"/><voice>2</voice><type>whole</type><staff>2</staff><notations><tied type="start"/></notations></note><note><chord/><pitch><step>A</step><octave>2</octave></pitch><duration>8</duration><tie type="start"/><voice>2</voice><type>whole</type><staff>2</staff><notations><tied type="start"/></notations></note><sound tempo="160"/></measure><measure number="2"><attributes/><note><pitch><step>C</step><octave>4</octave></pitch><duration>1</duration><voice>1</voice><type>eighth</type><staff>1</staff><beam number="1">begin</beam></note><note><pitch><step>D</step><octave>4</octave></pitch><duration>1</duration><voice>1</voice><type>eighth</type><staff>1</staff><beam number="1">end</beam></note><note><pitch><step>D</step><octave>4</octave></pitch><duration>1</duration><voice>1</voice><type>eighth</type><staff>1</staff><beam number="1">begin</beam></note><note><pitch><step>D</step><octave>4</octave></pitch><duration>1</duration><voice>1</voice><type>eighth</type><staff>1</staff><beam number="1">end</beam></note><note><pitch><step>D</step><octave>4</octave></pitch><duration>1</duration><voice>1</voice><type>eighth</type><staff>1</staff><beam number="1">begin</beam></note><note><pitch><step>D</step><octave>4</octave></pitch><duration>1</duration><voice>1</voice><type>eighth</type><staff>1</staff><beam number="1">end</beam></note><note><pitch><step>D</step><octave>4</octave></pitch><duration>1</duration><voice>1</voice><type>eighth</type><staff>1</staff><beam number="1">begin</beam></note><note><pitch><step>C</step><octave>4</octave></pitch><duration>1</duration><voice>1</voice><type>eighth</type><staff>1</staff><beam number="1">end</beam></note><backup><duration>8</duration></backup><note><pitch><step>D</step><octave>2</octave></pitch><duration>8</duration><tie type="stop"/><voice>2</voice><type>whole</type><staff>2</staff><notations><tied type="stop"/></notations></note><note><chord/><pitch><step>A</step><octave>2</octave></pitch><duration>8</duration><tie type="stop"/><voice>2</voice><type>whole</type><staff>2</staff><notations><tied type="stop"/></notations></note></measure><measure number="3"><attributes/><note><pitch><step>C</step><octave>4</octave></pitch><duration>1</duration><voice>1</voice><type>eighth</type><staff>1</staff><beam number="1">begin</beam></note><note><pitch><step>D</step><octave>4</octave></pitch><duration>1</duration><voice>1</voice><type>eighth</type><staff>1</staff><beam number="1">end</beam></note><note><pitch><step>D</step><octave>4</octave></pitch><duration>1</duration><voice>1</voice><type>eighth</type><staff>1</staff><beam number="1">begin</beam></note><note><pitch><step>D</step><octave>4</octave></pitch><duration>1</duration><voice>1</voice><type>eighth</type><staff>1</staff><beam number="1">end</beam></note><note><pitch><step>D</step><octave>4</octave></pitch><duration>1</duration><voice>1</voice><type>eighth</type><staff>1</staff><beam number="1">begin</beam></note><note><pitch><step>D</step><octave>4</octave></pitch><duration>1</duration><voice>1</voice><type>eighth</type><staff>1</staff><beam number="1">end</beam></note><note><pitch><step>D</step><octave>4</octave></pitch><duration>1</duration><voice>1</voice><type>eighth</type><staff>1</staff><beam number="1">begin</beam></note><note><pitch><step>C</step><octave>4</octave></pitch><duration>1</duration><voice>1</voice><type>eighth</type><staff>1</staff><beam number="1">end</beam></note><backup><duration>8</duration></backup><note><pitch><step>D</step><octave>2</octave></pitch><duration>8</duration><tie type="start"/><voice>2</voice><type>whole</type><staff>2</staff><notations><tied type="start"/></notations></note><note><chord/><pitch><step>G</step><alter>1</alter><octave>2</octave></pitch><duration>8</duration><tie type="start"/><voice>2</voice><type>whole</type><accidental>sharp</accidental><staff>2</staff><notations><tied type="start"/></notations></note></measure><measure number="4"><attributes/><note><pitch><step>C</step><octave>4</octave></pitch><duration>1</duration><voice>1</voice><type>eighth</type><staff>1</staff><beam number="1">begin</beam></note><note><pitch><step>D</step><octave>4</octave></pitch><duration>1</duration><voice>1</voice><type>eighth</type><staff>1</staff><beam number="1">end</beam></note><note><pitch><step>D</step><octave>4</octave></pitch><duration>1</duration><voice>1</voice><type>eighth</type><staff>1</staff><beam number="1">begin</beam></note><note><pitch><step>D</step><octave>4</octave></pitch><duration>1</duration><voice>1</voice><type>eighth</type><staff>1</staff><beam number="1">end</beam></note><note><pitch><step>D</step><octave>4</octave></pitch><duration>1</duration><voice>1</voice><type>eighth</type><staff>1</staff><beam number="1">begin</beam></note><note><pitch><step>D</step><octave>4</octave></pitch><duration>1</duration><voice>1</voice><type>eighth</type><staff>1</staff><beam number="1">end</beam></note><note><pitch><step>D</step><octave>4</octave></pitch><duration>1</duration><voice>1</voice><type>eighth</type><staff>1</staff><beam number="1">begin</beam></note><note><pitch><step>C</step><octave>4</octave></pitch><duration>1</duration><voice>1</voice><type>eighth</type><staff>1</staff><beam number="1">end</beam></note><backup><duration>8</duration></backup><note><pitch><step>D</step><octave>2</octave></pitch><duration>8</duration><tie type="stop"/><voice>2</voice><type>whole</type><staff>2</staff><notations><tied type="stop"/></notations></note><note><chord/><pitch><step>G</step><alter>1</alter><octave>2</octave></pitch><duration>8</duration><tie type="stop"/><voice>2</voice><type>whole</type><accidental>sharp</accidental><staff>2</staff><notations><tied type="stop"/></notations></note></measure><measure number="5"><attributes/><note><pitch><step>C</step><octave>4</octave></pitch><duration>1</duration><voice>1</voice><type>eighth</type><staff>1</staff><beam number="1">begin</beam></note><note><pitch><step>D</step><octave>4</octave></pitch><duration>1</duration><voice>1</voice><type>eighth</type><staff>1</staff><beam number="1">end</beam></note><note><pitch><step>D</step><octave>4</octave></pitch><duration>1</duration><voice>1</voice><type>eighth</type><staff>1</staff><beam number="1">begin</beam></note><note><pitch><step>D</step><octave>4</octave></pitch><duration>1</duration><voice>1</voice><type>eighth</type><staff>1</staff><beam number="1">end</beam></note><note><pitch><step>D</step><octave>4</octave></pitch><duration>1</duration><voice>1</voice><type>eighth</type><staff>1</staff><beam number="1">begin</beam></note><note><pitch><step>D</step><octave>4</octave></pitch><duration>1</duration><voice>1</voice><type>eighth</type><staff>1</staff><beam number="1">end</beam></note><note><pitch><step>D</step><octave>4</octave></pitch><duration>1</duration><voice>1</voice><type>eighth</type><staff>1</staff><beam number="1">begin</beam></note><note><pitch><step>C</step><octave>4</octave></pitch><duration>1</duration><voice>1</voice><type>eighth</type><staff>1</staff><beam number="1">end</beam></note><backup><duration>8</duration></backup><note><pitch><step>D</step><octave>2</octave></pitch><duration>4</duration><voice>2</voice><type>half</type><staff>2</staff></note><note><chord/><pitch><step>A</step><octave>2</octave></pitch><duration>4</duration><voice>2</voice><type>half</type><staff>2</staff></note><note><pitch><step>A</step><alter>1</alter><octave>2</octave></pitch><duration>4</duration><voice>2</voice><type>half</type><accidental>sharp</accidental><staff>2</staff></note></measure><measure number="6"><attributes/><note><pitch><step>C</step><octave>4</octave></pitch><duration>1</duration><voice>1</voice><type>eighth</type><staff>1</staff><beam number="1">begin</beam></note><note><pitch><step>D</step><octave>4</octave></pitch><duration>1</duration><voice>1</voice><type>eighth</type><staff>1</staff><beam number="1">end</beam></note><note><pitch><step>D</step><octave>4</octave></pitch><duration>1</duration><voice>1</voice><type>eighth</type><staff>1</staff><beam number="1">begin</beam></note><note><pitch><step>D</step><octave>4</octave></pitch><duration>1</duration><voice>1</voice><type>eighth</type><staff>1</staff><beam number="1">end</beam></note><note><pitch><step>D</step><octave>4</octave></pitch><duration>1</duration><voice>1</voice><type>eighth</type><staff>1</staff><beam number="1">begin</beam></note><note><pitch><step>D</step><octave>4</octave></pitch><duration>1</duration><voice>1</voice><type>eighth</type><staff>1</staff><beam number="1">end</beam></note><note><pitch><step>D</step><octave>4</octave></pitch><duration>1</duration><voice>1</voice><type>eighth</type><staff>1</staff><beam number="1">begin</beam></note><note><pitch><step>C</step><octave>4</octave></pitch><duration>1</duration><voice>1</voice><type>eighth</type><staff>1</staff><beam number="1">end</beam></note><backup><duration>8</duration></backup><note><pitch><step>D</step><octave>2</octave></pitch><duration>4</duration><voice>2</voice><type>half</type><staff>2</staff></note><note><chord/><pitch><step>B</step><octave>2</octave></pitch><duration>4</duration><voice>2</voice><type>half</type><staff>2</staff></note><note><pitch><step>A</step><alter>1</alter><octave>2</octave></pitch><duration>4</duration><voice>2</voice><type>half</type><accidental>sharp</accidental><staff>2</staff></note></measure><measure number="7"><attributes/><note><pitch><step>C</step><octave>4</octave></pitch><duration>1</duration><voice>1</voice><type>eighth</type><staff>1</staff><beam number="1">begin</beam></note><note><pitch><step>D</step><octave>4</octave></pitch><duration>1</duration><voice>1</voice><type>eighth</type><staff>1</staff><beam number="1">end</beam></note><note><pitch><step>D</step><octave>4</octave></pitch><duration>1</duration><voice>1</voice><type>eighth</type><staff>1</staff><beam number="1">begin</beam></note><note><pitch><step>D</step><octave>4</octave></pitch><duration>1</duration><voice>1</voice><type>eighth</type><staff>1</staff><beam number="1">end</beam></note><note><pitch><step>D</step><octave>4</octave></pitch><duration>1</duration><voice>1</voice><type>eighth</type><staff>1</staff><beam number="1">begin</beam></note><note><pitch><step>D</step><octave>4</octave></pitch><duration>1</duration><voice>1</voice><type>eighth</type><staff>1</staff><beam number="1">end</beam></note><note><pitch><step>D</step><octave>4</octave></pitch><duration>1</duration><voice>1</voice><type>eighth</type><staff>1</staff><beam number="1">begin</beam></note><note><pitch><step>C</step><octave>4</octave></pitch><duration>1</duration><voice>1</voice><type>eighth</type><staff>1</staff><beam number="1">end</beam></note><backup><duration>8</duration></backup><note><pitch><step>D</step><octave>2</octave></pitch><duration>2</duration><voice>2</voice><type>quarter</type><staff>2</staff></note><note><chord/><pitch><step>A</step><octave>2</octave></pitch><duration>2</duration><voice>2</voice><type>quarter</type><staff>2</staff></note><note><pitch><step>A</step><alter>1</alter><octave>2</octave></pitch><duration>2</duration><voice>2</voice><type>quarter</type><accidental>sharp</accidental><staff>2</staff></note><note><chord/><pitch><step>D</step><octave>2</octave></pitch><duration>2</duration><voice>2</voice><type>quarter</type><staff>2</staff></note><note><pitch><step>D</step><octave>2</octave></pitch><duration>2</duration><voice>2</voice><type>quarter</type><staff>2</staff></note><note><chord/><pitch><step>B</step><octave>2</octave></pitch><duration>2</duration><voice>2</voice><type>quarter</type><staff>2</staff></note><note><pitch><step>A</step><alter>1</alter><octave>2</octave></pitch><duration>2</duration><voice>2</voice><type>quarter</type><staff>2</staff></note><note><chord/><pitch><step>D</step><octave>2</octave></pitch><duration>2</duration><voice>2</voice><type>quarter</type><staff>2</staff></note></measure><measure number="8"><attributes/><direction placement="below"><direction-type><dynamics><f/></dynamics></direction-type><staff>1</staff><sound dynamics="90"/></direction><note><rest/><duration>1</duration><voice>1</voice><type>eighth</type><staff>1</staff></note><note><pitch><step>F</step><octave>4</octave></pitch><duration>1</duration><voice>1</voice><type>eighth</type><staff>1</staff></note><note><rest/><duration>1</duration><voice>1</voice><type>eighth</type><staff>1</staff></note><note><pitch><step>E</step><octave>4</octave></pitch><duration>1</duration><voice>1</voice><type>eighth</type><staff>1</staff></note><note><rest/><duration>1</duration><voice>1</voice><type>eighth</type><staff>1</staff></note><note><pitch><step>C</step><octave>4</octave></pitch><duration>1</duration><voice>1</voice><type>eighth</type><staff>1</staff></note><note><rest/><duration>2</duration><voice>1</voice><type>quarter</type><staff>1</staff></note><backup><duration>8</duration></backup><note><pitch><step>D</step><octave>2</octave></pitch><duration>2</duration><voice>2</voice><type>quarter</type><staff>2</staff></note><note><chord/><pitch><step>A</step><octave>2</octave></pitch><duration>2</duration><voice>2</voice><type>quarter</type><staff>2</staff></note><note><pitch><step>D</step><octave>2</octave></pitch><duration>2</duration><voice>2</voice><type>quarter</type><staff>2</staff></note><note><chord/><pitch><step>A</step><alter>1</alter><octave>2</octave></pitch><duration>2</duration><voice>2</voice><type>quarter</type><accidental>sharp</accidental><staff>2</staff></note><note><pitch><step>D</step><octave>2</octave></pitch><duration>2</duration><voice>2</voice><type>quarter</type><staff>2</staff></note><note><chord/><pitch><step>B</step><octave>2</octave></pitch><duration>2</duration><voice>2</voice><type>quarter</type><staff>2</staff></note><note><pitch><step>D</step><octave>2</octave></pitch><duration>2</duration><voice>2</voice><type>quarter</type><staff>2</staff></note><note><chord/><pitch><step>C</step><octave>3</octave></pitch><duration>2</duration><voice>2</voice><type>quarter</type><staff>2</staff></note></measure><measure number="9"><attributes/><note><pitch><step>D</step><octave>6</octave></pitch><duration>8</duration><voice>1</voice><type>whole</type><staff>1</staff></note><note><chord/><pitch><step>A</step><octave>5</octave></pitch><duration>8</duration><voice>1</voice><type>whole</type><staff>1</staff></note><note><chord/><pitch><step>G</step><octave>5</octave></pitch><duration>8</duration><voice>1</voice><type>whole</type><staff>1</staff></note><direction placement="below"><direction-type><dynamics><p/></dynamics></direction-type><staff>2</staff><sound dynamics="49"/></direction><backup><duration>8</duration></backup><note><pitch><step>D</step><octave>2</octave></pitch><duration>1</duration><voice>2</voice><type>eighth</type><staff>2</staff><beam number="1">begin</beam></note><note><chord/><pitch><step>A</step><octave>2</octave></pitch><duration>1</duration><voice>2</voice><type>eighth</type><staff>2</staff></note><note><pitch><step>D</step><octave>2</octave></pitch><duration>1</duration><voice>2</voice><type>eighth</type><staff>2</staff><beam number="1">end</beam></note><note><pitch><step>D</step><octave>2</octave></pitch><duration>1</duration><voice>2</voice><type>eighth</type><staff>2</staff><beam number="1">begin</beam></note><note><pitch><step>D</step><octave>2</octave></pitch><duration>1</duration><voice>2</voice><type>eighth</type><staff>2</staff><beam number="1">end</beam></note><note><pitch><step>D</step><octave>2</octave></pitch><duration>1</duration><voice>2</voice><type>eighth</type><staff>2</staff><beam number="1">begin</beam></note><note><pitch><step>D</step><octave>2</octave></pitch><duration>1</duration><voice>2</voice><type>eighth</type><staff>2</staff><beam number="1">end</beam></note><note><pitch><step>D</step><octave>2</octave></pitch><duration>1</duration><voice>2</voice><type>eighth</type><staff>2</staff><beam number="1">begin</beam></note><note><pitch><step>D</step><octave>2</octave></pitch><duration>1</duration><voice>2</voice><type>eighth</type><staff>2</staff><beam number="1">end</beam></note></measure><measure number="10"><attributes><divisions>4</divisions></attributes><note><pitch><step>D</step><octave>6</octave></pitch><duration>2</duration><voice>1</voice><type>eighth</type><staff>1</staff><beam number="1">begin</beam></note><note><chord/><pitch><step>D</step><octave>4</octave></pitch><duration>2</duration><voice>1</voice><type>eighth</type><staff>1</staff></note><note><chord/><pitch><step>F</step><octave>4</octave></pitch><duration>2</duration><voice>1</voice><type>eighth</type><staff>1</staff></note><note><chord/><pitch><step>A</step><octave>4</octave></pitch><duration>2</duration><voice>1</voice><type>eighth</type><staff>1</staff></note><note><pitch><step>D</step><octave>4</octave></pitch><duration>2</duration><voice>1</voice><type>eighth</type><staff>1</staff><beam number="1">end</beam></note><note><pitch><step>D</step><octave>4</octave></pitch><duration>1</duration><voice>1</voice><type>16th</type><staff>1</staff><beam number="1">begin</beam><beam number="2">begin</beam></note><note><pitch><step>D</step><octave>4</octave></pitch><duration>1</duration><voice>1</voice><type>16th</type><staff>1</staff><beam number="1">continue</beam><beam number="2">end</beam></note><note><pitch><step>C</step><octave>4</octave></pitch><duration>2</duration><voice>1</voice><type>eighth</type><staff>1</staff><beam number="1">end</beam></note><note><pitch><step>D</step><octave>4</octave></pitch><duration>1</duration><voice>1</voice><type>16th</type><staff>1</staff><beam number="1">begin</beam><beam number="2">begin</beam></note><note><pitch><step>D</step><octave>4</octave></pitch><duration>1</duration><voice>1</voice><type>16th</type><staff>1</staff><beam number="1">continue</beam><beam number="2">continue</beam></note><note><pitch><step>C</step><octave>4</octave></pitch><duration>1</duration><voice>1</voice><type>16th</type><staff>1</staff><beam number="1">continue</beam><beam number="2">continue</beam></note><note><pitch><step>F</step><octave>4</octave></pitch><duration>1</duration><voice>1</voice><type>16th</type><staff>1</staff><beam number="1">end</beam><beam number="2">end</beam></note><note><pitch><step>E</step><octave>4</octave></pitch><duration>1</duration><voice>1</voice><type>16th</type><staff>1</staff><beam number="1">begin</beam><beam number="2">begin</beam></note><note><pitch><step>D</step><octave>4</octave></pitch><duration>1</duration><voice>1</voice><type>16th</type><staff>1</staff><beam number="1">continue</beam><beam number="2">continue</beam></note><note><pitch><step>C</step><octave>4</octave></pitch><duration>1</duration><voice>1</voice><type>16th</type><staff>1</staff><beam number="1">continue</beam><beam number="2">continue</beam></note><note><pitch><step>C</step><alter>1</alter><octave>4</octave></pitch><duration>1</duration><voice>1</voice><type>16th</type><accidental>sharp</accidental><staff>1</staff><beam number="1">end</beam><beam number="2">end</beam></note><backup><duration>16</duration></backup><note><pitch><step>D</step><octave>2</octave></pitch><duration>2</duration><voice>2</voice><type>eighth</type><staff>2</staff><beam number="1">begin</beam></note><note><pitch><step>D</step><octave>2</octave></pitch><duration>2</duration><voice>2</voice><type>eighth</type><staff>2</staff><beam number="1">end</beam></note><note><pitch><step>D</step><octave>2</octave></pitch><duration>2</duration><voice>2</voice><type>eighth</type><staff>2</staff><beam number="1">begin</beam></note><note><pitch><step>D</step><octave>2</octave></pitch><duration>2</duration><voice>2</voice><type>eighth</type><staff>2</staff><beam number="1">end</beam></note><note><pitch><step>D</step><octave>2</octave></pitch><duration>2</duration><voice>2</voice><type>eighth</type><staff>2</staff><beam number="1">begin</beam></note><note><pitch><step>D</step><octave>2</octave></pitch><duration>2</duration><voice>2</voice><type>eighth</type><staff>2</staff><beam number="1">end</beam></note><note><pitch><step>D</step><octave>2</octave></pitch><duration>2</duration><voice>2</voice><type>eighth</type><staff>2</staff><beam number="1">begin</beam></note><note><pitch><step>D</step><octave>2</octave></pitch><duration>2</duration><voice>2</voice><type>eighth</type><staff>2</staff><beam number="1">end</beam></note></measure><measure number="11"><attributes/><note><rest/><duration>2</duration><voice>1</voice><type>eighth</type><staff>1</staff></note><note><pitch><step>D</step><octave>4</octave></pitch><duration>2</duration><voice>1</voice><type>eighth</type><staff>1</staff></note><note><pitch><step>D</step><octave>4</octave></pitch><duration>1</duration><voice>1</voice><type>16th</type><staff>1</staff><beam number="1">begin</beam><beam number="2">begin</beam></note><note><pitch><step>D</step><octave>4</octave></pitch><duration>1</duration><voice>1</voice><type>16th</type><staff>1</staff><beam number="1">continue</beam><beam number="2">end</beam></note><note><pitch><step>C</step><octave>4</octave></pitch><duration>2</duration><voice>1</voice><type>eighth</type><staff>1</staff><beam number="1">end</beam></note><note><rest/><duration>1</duration><voice>1</voice><type>16th</type><staff>1</staff></note><note><rest/><duration>1</duration><voice>1</voice><type>16th</type><staff>1</staff></note><note><pitch><step>D</step><alter>1</alter><octave>4</octave></pitch><duration>1</duration><voice>1</voice><type>16th</type><accidental>sharp</accidental><staff>1</staff><beam number="1">begin</beam><beam number="2">begin</beam></note><note><pitch><step>C</step><alter>1</alter><octave>4</octave></pitch><duration>1</duration><voice>1</voice><type>16th</type><accidental>sharp</accidental><staff>1</staff><beam number="1">end</beam><beam number="2">end</beam></note><note><pitch><step>E</step><octave>4</octave></pitch><duration>1</duration><voice>1</voice><type>16th</type><staff>1</staff><beam number="1">begin</beam><beam number="2">begin</beam></note><note><pitch><step>F</step><octave>4</octave></pitch><duration>1</duration><voice>1</voice><type>16th</type><staff>1</staff><beam number="1">continue</beam><beam number="2">continue</beam></note><note><pitch><step>G</step><octave>4</octave></pitch><duration>1</duration><voice>1</voice><type>16th</type><staff>1</staff><beam number="1">continue</beam><beam number="2">continue</beam></note><note><pitch><step>G</step><alter>1</alter><octave>4</octave></pitch><duration>1</duration><voice>1</voice><type>16th</type><accidental>sharp</accidental><staff>1</staff><beam number="1">end</beam><beam number="2">end</beam></note><backup><duration>16</duration></backup><note><pitch><step>D</step><octave>2</octave></pitch><duration>2</duration><voice>2</voice><type>eighth</type><staff>2</staff><beam number="1">begin</beam></note><note><chord/><pitch><step>G</step><alter>1</alter><octave>2</octave></pitch><duration>2</duration><voice>2</voice><type>eighth</type><accidental>sharp</accidental><staff>2</staff></note><note><pitch><step>D</step><octave>2</octave></pitch><duration>2</duration><voice>2</voice><type>eighth</type><staff>2</staff><beam number="1">end</beam></note><note><pitch><step>D</step><octave>2</octave></pitch><duration>2</duration><voice>2</voice><type>eighth</type><staff>2</staff><beam number="1">begin</beam></note><note><pitch><step>D</step><octave>2</octave></pitch><duration>2</duration><voice>2</voice><type>eighth</type><staff>2</staff><beam number="1">end</beam></note><note><pitch><step>D</step><octave>2</octave></pitch><duration>2</duration><voice>2</voice><type>eighth</type><staff>2</staff><beam number="1">begin</beam></note><note><pitch><step>D</step><octave>2</octave></pitch><duration>2</duration><voice>2</voice><type>eighth</type><staff>2</staff><beam number="1">end</beam></note><note><pitch><step>D</step><octave>2</octave></pitch><duration>2</duration><voice>2</voice><type>eighth</type><staff>2</staff><beam number="1">begin</beam></note><note><pitch><step>D</step><octave>2</octave></pitch><duration>2</duration><voice>2</voice><type>eighth</type><staff>2</staff><beam number="1">end</beam></note></measure><measure number="12"><attributes/><note><pitch><step>A</step><octave>4</octave></pitch><duration>1</duration><voice>1</voice><type>16th</type><staff>1</staff><beam number="1">begin</beam><beam number="2">begin</beam></note><note><pitch><step>A</step><octave>4</octave></pitch><duration>1</duration><voice>1</voice><type>16th</type><staff>1</staff><beam number="1">continue</beam><beam number="2">end</beam></note><note><pitch><step>G</step><alter>1</alter><octave>4</octave></pitch><duration>2</duration><voice>1</voice><type>eighth</type><accidental>sharp</accidental><staff>1</staff><beam number="1">end</beam></note><note><pitch><step>A</step><octave>4</octave></pitch><duration>1</duration><voice>1</voice><type>16th</type><staff>1</staff><beam number="1">begin</beam><beam number="2">begin</beam></note><note><pitch><step>C</step><octave>5</octave></pitch><duration>1</duration><voice>1</voice><type>16th</type><staff>1</staff><beam number="1">end</beam><beam number="2">end</beam></note><note><rest/><duration>1</duration><voice>1</voice><type>16th</type><staff>1</staff></note><note><pitch><step>C</step><octave>5</octave></pitch><duration>1</duration><voice>1</voice><type>16th</type><staff>1</staff></note><note><rest/><duration>1</duration><voice>1</voice><type>16th</type><staff>1</staff></note><note><pitch><step>C</step><octave>5</octave></pitch><duration>1</duration><voice>1</voice><type>16th</type><staff>1</staff></note><note><rest/><duration>1</duration><voice>1</voice><type>16th</type><staff>1</staff></note><note><pitch><step>C</step><octave>5</octave></pitch><duration>1</duration><voice>1</voice><type>16th</type><staff>1</staff></note><note><pitch><step>G</step><alter>1</alter><octave>4</octave></pitch><duration>1</duration><voice>1</voice><type>16th</type><staff>1</staff><beam number="1">begin</beam><beam number="2">begin</beam></note><note><pitch><step>G</step><alter>1</alter><octave>4</octave></pitch><duration>1</duration><voice>1</voice><type>16th</type><staff>1</staff><beam number="1">continue</beam><beam number="2">end</beam></note><note><pitch><step>G</step><octave>4</octave></pitch><duration>2</duration><voice>1</voice><type>eighth</type><accidental>natural</accidental><staff>1</staff><beam number="1">end</beam></note><backup><duration>16</duration></backup><note><pitch><step>D</step><octave>2</octave></pitch><duration>2</duration><voice>2</voice><type>eighth</type><staff>2</staff><beam number="1">begin</beam></note><note><pitch><step>D</step><octave>2</octave></pitch><duration>2</duration><voice>2</voice><type>eighth</type><staff>2</staff><beam number="1">end</beam></note><note><pitch><step>D</step><octave>2</octave></pitch><duration>2</duration><voice>2</voice><type>eighth</type><staff>2</staff><beam number="1">begin</beam></note><note><pitch><step>D</step><octave>2</octave></pitch><duration>2</duration><voice>2</voice><type>eighth</type><staff>2</staff><beam number="1">end</beam></note><note><pitch><step>D</step><octave>2</octave></pitch><duration>2</duration><voice>2</voice><type>eighth</type><staff>2</staff><beam number="1">begin</beam></note><note><pitch><step>D</step><octave>2</octave></pitch><duration>2</duration><voice>2</voice><type>eighth</type><staff>2</staff><beam number="1">end</beam></note><note><pitch><step>D</step><octave>2</octave></pitch><duration>2</duration><voice>2</voice><type>eighth</type><staff>2</staff><beam number="1">begin</beam></note><note><pitch><step>D</step><octave>2</octave></pitch><duration>2</duration><voice>2</voice><type>eighth</type><staff>2</staff><beam number="1">end</beam></note></measure><measure number="13"><attributes/><note><pitch><step>A</step><octave>4</octave></pitch><duration>1</duration><voice>1</voice><type>16th</type><staff>1</staff><beam number="1">begin</beam><beam number="2">begin</beam></note><note><chord/><pitch><step>D</step><octave>4</octave></pitch><duration>1</duration><voice>1</voice><type>16th</type><staff>1</staff></note><note><pitch><step>A</step><octave>4</octave></pitch><duration>1</duration><voice>1</voice><type>16th</type><staff>1</staff><beam number="1">continue</beam><beam number="2">end</beam></note><note><chord/><pitch><step>D</step><octave>4</octave></pitch><duration>1</duration><voice>1</voice><type>16th</type><staff>1</staff></note><note><pitch><step>G</step><octave>4</octave></pitch><duration>2</duration><voice>1</voice><type>eighth</type><staff>1</staff><beam number="1">end</beam></note><note><chord/><pitch><step>C</step><octave>4</octave></pitch><duration>2</duration><voice>1</voice><type>eighth</type><staff>1</staff></note><note><pitch><step>D</step><octave>4</octave></pitch><duration>1</duration><voice>1</voice><type>16th</type><staff>1</staff><beam number="1">begin</beam><beam number="2">begin</beam></note><note><chord/><pitch><step>A</step><octave>4</octave></pitch><duration>1</duration><voice>1</voice><type>16th</type><staff>1</staff></note><note><pitch><step>D</step><octave>4</octave></pitch><duration>1</duration><voice>1</voice><type>16th</type><staff>1</staff><beam number="1">continue</beam><beam number="2">end</beam></note><note><chord/><pitch><step>A</step><octave>4</octave></pitch><duration>1</duration><voice>1</voice><type>16th</type><staff>1</staff></note><note><pitch><step>C</step><octave>4</octave></pitch><duration>2</duration><voice>1</voice><type>eighth</type><staff>1</staff><beam number="1">end</beam></note><note><chord/><pitch><step>G</step><octave>4</octave></pitch><duration>2</duration><voice>1</voice><type>eighth</type><staff>1</staff></note><note><pitch><step>D</step><octave>4</octave></pitch><duration>4</duration><voice>1</voice><type>quarter</type><staff>1</staff></note><note><chord/><pitch><step>A</step><octave>4</octave></pitch><duration>4</duration><voice>1</voice><type>quarter</type><staff>1</staff></note><note><pitch><step>C</step><octave>4</octave></pitch><duration>4</duration><voice>1</voice><type>quarter</type><staff>1</staff></note><note><chord/><pitch><step>G</step><octave>4</octave></pitch><duration>4</duration><voice>1</voice><type>quarter</type><staff>1</staff></note><backup><duration>16</duration></backup><note><pitch><step>D</step><octave>2</octave></pitch><duration>2</duration><voice>2</voice><type>eighth</type><staff>2</staff><beam number="1">begin</beam></note><note><chord/><pitch><step>A</step><octave>2</octave></pitch><duration>2</duration><voice>2</voice><type>eighth</type><staff>2</staff></note><note><pitch><step>D</step><octave>2</octave></pitch><duration>2</duration><voice>2</voice><type>eighth</type><staff>2</staff><beam number="1">end</beam></note><note><pitch><step>D</step><octave>2</octave></pitch><duration>2</duration><voice>2</voice><type>eighth</type><staff>2</staff><beam number="1">begin</beam></note><note><pitch><step>D</step><octave>2</octave></pitch><duration>2</duration><voice>2</voice><type>eighth</type><staff>2</staff><beam number="1">end</beam></note><note><pitch><step>D</step><octave>2</octave></pitch><duration>2</duration><voice>2</voice><type>eighth</type><staff>2</staff><beam number="1">begin</beam></note><note><pitch><step>D</step><octave>2</octave></pitch><duration>2</duration><voice>2</voice><type>eighth</type><staff>2</staff><beam number="1">end</beam></note><note><pitch><step>D</step><octave>2</octave></pitch><duration>2</duration><voice>2</voice><type>eighth</type><staff>2</staff><beam number="1">begin</beam></note><note><pitch><step>D</step><octave>2</octave></pitch><duration>2</duration><voice>2</voice><type>eighth</type><staff>2</staff><beam number="1">end</beam></note></measure><measure number="14"><attributes><divisions>8</divisions></attributes><note><pitch><step>D</step><octave>6</octave></pitch><duration>2</duration><voice>1</voice><type>16th</type><staff>1</staff><beam number="1">begin</beam><beam number="2">begin</beam></note><note><pitch><step>A</step><octave>5</octave></pitch><duration>2</duration><voice>1</voice><type>16th</type><staff>1</staff><beam number="1">continue</beam><beam number="2">continue</beam></note><note><pitch><step>F</step><octave>5</octave></pitch><duration>2</duration><voice>1</voice><type>16th</type><staff>1</staff><beam number="1">continue</beam><beam number="2">continue</beam></note><note><pitch><step>D</step><octave>6</octave></pitch><duration>2</duration><voice>1</voice><type>16th</type><staff>1</staff><beam number="1">end</beam><beam number="2">end</beam></note><note><pitch><step>A</step><octave>5</octave></pitch><duration>2</duration><voice>1</voice><type>16th</type><staff>1</staff><beam number="1">begin</beam><beam number="2">begin</beam></note><note><pitch><step>F</step><octave>5</octave></pitch><duration>2</duration><voice>1</voice><type>16th</type><staff>1</staff><beam number="1">continue</beam><beam number="2">continue</beam></note><note><pitch><step>D</step><octave>6</octave></pitch><duration>2</duration><voice>1</voice><type>16th</type><staff>1</staff><beam number="1">continue</beam><beam number="2">continue</beam></note><note><pitch><step>A</step><octave>5</octave></pitch><duration>2</duration><voice>1</voice><type>16th</type><staff>1</staff><beam number="1">end</beam><beam number="2">end</beam></note><note><pitch><step>F</step><octave>5</octave></pitch><duration>2</duration><voice>1</voice><type>16th</type><staff>1</staff><beam number="1">begin</beam><beam number="2">begin</beam></note><note><pitch><step>D</step><octave>6</octave></pitch><duration>2</duration><voice>1</voice><type>16th</type><staff>1</staff><beam number="1">continue</beam><beam number="2">continue</beam></note><note><pitch><step>A</step><octave>5</octave></pitch><duration>2</duration><voice>1</voice><type>16th</type><staff>1</staff><beam number="1">continue</beam><beam number="2">continue</beam></note><note><pitch><step>F</step><octave>5</octave></pitch><duration>2</duration><voice>1</voice><type>16th</type><staff>1</staff><beam number="1">end</beam><beam number="2">end</beam></note><note><pitch><step>D</step><octave>6</octave></pitch><duration>8</duration><voice>1</voice><type>quarter</type><staff>1</staff></note><backup><duration>32</duration></backup><note><pitch><step>D</step><octave>2</octave></pitch><duration>4</duration><voice>2</voice><type>eighth</type><staff>2</staff><beam number="1">begin</beam></note><note><pitch><step>D</step><octave>2</octave></pitch><duration>4</duration><voice>2</voice><type>eighth</type><staff>2</staff><beam number="1">end</beam></note><note><pitch><step>D</step><octave>2</octave></pitch><duration>4</duration><voice>2</voice><type>eighth</type><staff>2</staff><beam number="1">begin</beam></note><note><pitch><step>D</step><octave>2</octave></pitch><duration>4</duration><voice>2</voice><type>eighth</type><staff>2</staff><beam number="1">end</beam></note><note><pitch><step>D</step><octave>2</octave></pitch><duration>4</duration><voice>2</voice><type>eighth</type><staff>2</staff><beam number="1">begin</beam></note><note><pitch><step>D</step><octave>2</octave></pitch><duration>4</duration><voice>2</voice><type>eighth</type><staff>2</staff><beam number="1">end</beam></note><note><pitch><step>D</step><octave>2</octave></pitch><duration>4</duration><voice>2</voice><type>eighth</type><staff>2</staff><beam number="1">begin</beam></note><note><pitch><step>D</step><octave>2</octave></pitch><duration>4</duration><voice>2</voice><type>eighth</type><staff>2</staff><beam number="1">end</beam></note></measure><measure number="15"><attributes><divisions>4</divisions></attributes><note><pitch><step>C</step><octave>6</octave></pitch><duration>1</duration><voice>1</voice><type>16th</type><staff>1</staff><beam number="1">begin</beam><beam number="2">begin</beam></note><note><pitch><step>G</step><octave>5</octave></pitch><duration>1</duration><voice>1</voice><type>16th</type><staff>1</staff><beam number="1">continue</beam><beam number="2">continue</beam></note><note><pitch><step>E</step><octave>5</octave></pitch><duration>1</duration><voice>1</voice><type>16th</type><staff>1</staff><beam number="1">continue</beam><beam number="2">continue</beam></note><note><pitch><step>C</step><octave>6</octave></pitch><duration>1</duration><voice>1</voice><type>16th</type><staff>1</staff><beam number="1">end</beam><beam number="2">end</beam></note><note><pitch><step>G</step><octave>5</octave></pitch><duration>1</duration><voice>1</voice><type>16th</type><staff>1</staff><beam number="1">begin</beam><beam number="2">begin</beam></note><note><pitch><step>E</step><octave>5</octave></pitch><duration>1</duration><voice>1</voice><type>16th</type><staff>1</staff><beam number="1">continue</beam><beam number="2">continue</beam></note><note><pitch><step>C</step><octave>6</octave></pitch><duration>1</duration><voice>1</voice><type>16th</type><staff>1</staff><beam number="1">continue</beam><beam number="2">continue</beam></note><note><pitch><step>G</step><octave>5</octave></pitch><duration>1</duration><voice>1</voice><type>16th</type><staff>1</staff><beam number="1">end</beam><beam number="2">end</beam></note><note><pitch><step>E</step><octave>5</octave></pitch><duration>1</duration><voice>1</voice><type>16th</type><staff>1</staff><beam number="1">begin</beam><beam number="2">begin</beam></note><note><pitch><step>C</step><octave>6</octave></pitch><duration>1</duration><voice>1</voice><type>16th</type><staff>1</staff><beam number="1">continue</beam><beam number="2">continue</beam></note><note><pitch><step>G</step><octave>5</octave></pitch><duration>1</duration><voice>1</voice><type>16th</type><staff>1</staff><beam number="1">continue</beam><beam number="2">continue</beam></note><note><pitch><step>E</step><octave>5</octave></pitch><duration>1</duration><voice>1</voice><type>16th</type><staff>1</staff><beam number="1">end</beam><beam number="2">end</beam></note><note><pitch><step>C</step><octave>6</octave></pitch><duration>4</duration><voice>1</voice><type>quarter</type><staff>1</staff></note><backup><duration>16</duration></backup><note><pitch><step>D</step><octave>2</octave></pitch><duration>2</duration><voice>2</voice><type>eighth</type><staff>2</staff><beam number="1">begin</beam></note><note><chord/><pitch><step>G</step><alter>1</alter><octave>2</octave></pitch><duration>2</duration><voice>2</voice><type>eighth</type><accidental>sharp</accidental><staff>2</staff></note><note><pitch><step>D</step><octave>2</octave></pitch><duration>2</duration><voice>2</voice><type>eighth</type><staff>2</staff><beam number="1">end</beam></note><note><pitch><step>D</step><octave>2</octave></pitch><duration>2</duration><voice>2</voice><type>eighth</type><staff>2</staff><beam number="1">begin</beam></note><note><pitch><step>D</step><octave>2</octave></pitch><duration>2</duration><voice>2</voice><type>eighth</type><staff>2</staff><beam number="1">end</beam></note><note><pitch><step>D</step><octave>2</octave></pitch><duration>2</duration><voice>2</voice><type>eighth</type><staff>2</staff><beam number="1">begin</beam></note><note><pitch><step>D</step><octave>2</octave></pitch><duration>2</duration><voice>2</voice><type>eighth</type><staff>2</staff><beam number="1">end</beam></note><note><pitch><step>D</step><octave>2</octave></pitch><duration>2</duration><voice>2</voice><type>eighth</type><staff>2</staff><beam number="1">begin</beam></note><note><pitch><step>D</step><octave>2</octave></pitch><duration>2</duration><voice>2</voice><type>eighth</type><staff>2</staff><beam number="1">end</beam></note></measure><measure number="16"><attributes/><note><pitch><step>A</step><alter>1</alter><octave>5</octave></pitch><duration>1</duration><voice>1</voice><type>16th</type><accidental>sharp</accidental><staff>1</staff><beam number="1">begin</beam><beam number="2">begin</beam></note><note><pitch><step>F</step><octave>5</octave></pitch><duration>1</duration><voice>1</voice><type>16th</type><staff>1</staff><beam number="1">continue</beam><beam number="2">continue</beam></note><note><pitch><step>D</step><octave>5</octave></pitch><duration>1</duration><voice>1</voice><type>16th</type><staff>1</staff><beam number="1">continue</beam><beam number="2">continue</beam></note><note><pitch><step>A</step><alter>1</alter><octave>5</octave></pitch><duration>1</duration><voice>1</voice><type>16th</type><staff>1</staff><beam number="1">end</beam><beam number="2">end</beam></note><note><pitch><step>F</step><octave>5</octave></pitch><duration>1</duration><voice>1</voice><type>16th</type><staff>1</staff><beam number="1">begin</beam><beam number="2">begin</beam></note><note><pitch><step>D</step><octave>5</octave></pitch><duration>1</duration><voice>1</voice><type>16th</type><staff>1</staff><beam number="1">continue</beam><beam number="2">continue</beam></note><note><pitch><step>A</step><alter>1</alter><octave>5</octave></pitch><duration>1</duration><voice>1</voice><type>16th</type><staff>1</staff><beam number="1">continue</beam><beam number="2">continue</beam></note><note><pitch><step>F</step><octave>5</octave></pitch><duration>1</duration><voice>1</voice><type>16th</type><staff>1</staff><beam number="1">end</beam><beam number="2">end</beam></note><note><pitch><step>C</step><octave>6</octave></pitch><duration>1</duration><voice>1</voice><type>16th</type><staff>1</staff><beam number="1">begin</beam><beam number="2">begin</beam></note><note><pitch><step>G</step><octave>5</octave></pitch><duration>1</duration><voice>1</voice><type>16th</type><staff>1</staff><beam number="1">continue</beam><beam number="2">continue</beam></note><note><pitch><step>E</step><octave>5</octave></pitch><duration>1</duration><voice>1</voice><type>16th</type><staff>1</staff><beam number="1">continue</beam><beam number="2">continue</beam></note><note><pitch><step>C</step><octave>6</octave></pitch><duration>1</duration><voice>1</voice><type>16th</type><staff>1</staff><beam number="1">end</beam><beam number="2">end</beam></note><note><pitch><step>G</step><octave>5</octave></pitch><duration>1</duration><voice>1</voice><type>16th</type><staff>1</staff><beam number="1">begin</beam><beam number="2">begin</beam></note><note><pitch><step>E</step><octave>5</octave></pitch><duration>1</duration><voice>1</voice><type>16th</type><staff>1</staff><beam number="1">continue</beam><beam number="2">continue</beam></note><note><pitch><step>C</step><octave>6</octave></pitch><duration>1</duration><voice>1</voice><type>16th</type><staff>1</staff><beam number="1">continue</beam><beam number="2">continue</beam></note><note><pitch><step>G</step><octave>5</octave></pitch><duration>1</duration><voice>1</voice><type>16th</type><staff>1</staff><beam number="1">end</beam><beam number="2">end</beam></note><backup><duration>16</duration></backup><note><pitch><step>D</step><octave>2</octave></pitch><duration>2</duration><voice>2</voice><type>eighth</type><staff>2</staff><beam number="1">begin</beam></note><note><pitch><step>D</step><octave>2</octave></pitch><duration>2</duration><voice>2</voice><type>eighth</type><staff>2</staff><beam number="1">end</beam></note><note><pitch><step>D</step><octave>2</octave></pitch><duration>2</duration><voice>2</voice><type>eighth</type><staff>2</staff><beam number="1">begin</beam></note><note><pitch><step>D</step><octave>2</octave></pitch><duration>2</duration><voice>2</voice><type>eighth</type><staff>2</staff><beam number="1">end</beam></note><note><pitch><step>D</step><octave>2</octave></pitch><duration>2</duration><voice>2</voice><type>eighth</type><staff>2</staff><beam number="1">begin</beam></note><note><pitch><step>D</step><octave>2</octave></pitch><duration>2</duration><voice>2</voice><type>eighth</type><staff>2</staff><beam number="1">end</beam></note><note><pitch><step>D</step><octave>2</octave></pitch><duration>2</duration><voice>2</voice><type>eighth</type><staff>2</staff><beam number="1">begin</beam></note><note><pitch><step>D</step><octave>2</octave></pitch><duration>2</duration><voice>2</voice><type>eighth</type><staff>2</staff><beam number="1">end</beam></note></measure><measure number="17"><attributes/><note><pitch><step>D</step><octave>6</octave></pitch><duration>1</duration><voice>1</voice><type>16th</type><staff>1</staff><beam number="1">begin</beam><beam number="2">begin</beam></note><note><pitch><step>A</step><octave>5</octave></pitch><duration>1</duration><voice>1</voice><type>16th</type><staff>1</staff><beam number="1">continue</beam><beam number="2">continue</beam></note><note><pitch><step>F</step><octave>5</octave></pitch><duration>1</duration><voice>1</voice><type>16th</type><staff>1</staff><beam number="1">continue</beam><beam number="2">continue</beam></note><note><pitch><step>D</step><octave>6</octave></pitch><duration>1</duration><voice>1</voice><type>16th</type><staff>1</staff><beam number="1">end</beam><beam number="2">end</beam></note><note><pitch><step>A</step><octave>5</octave></pitch><duration>1</duration><voice>1</voice><type>16th</type><staff>1</staff><beam number="1">begin</beam><beam number="2">begin</beam></note><note><pitch><step>F</step><octave>5</octave></pitch><duration>1</duration><voice>1</voice><type>16th</type><staff>1</staff><beam number="1">continue</beam><beam number="2">end</beam></note><note><pitch><step>D</step><octave>6</octave></pitch><duration>2</duration><voice>1</voice><type>eighth</type><staff>1</staff><beam number="1">end</beam></note><note><rest/><duration>4</duration><voice>1</voice><type>quarter</type><staff>1</staff></note><note><rest/><duration>4</duration><voice>1</voice><type>quarter</type><staff>1</staff></note><backup><duration>16</duration></backup><note><pitch><step>D</step><octave>2</octave></pitch><duration>4</duration><voice>2</voice><type>quarter</type><staff>2</staff></note><note><pitch><step>E</step><octave>2</octave></pitch><duration>4</duration><voice>2</voice><type>quarter</type><staff>2</staff></note><note><pitch><step>F</step><octave>2</octave></pitch><duration>4</duration><voice>2</voice><type>quarter</type><staff>2</staff></note><note><pitch><step>E</step><octave>2</octave></pitch><duration>4</duration><voice>2</voice><type>quarter</type><staff>2</staff></note></measure><measure number="18"><attributes/><note><pitch><step>D</step><octave>5</octave></pitch><duration>4</duration><voice>1</voice><type>quarter</type><staff>1</staff></note><note><chord/><pitch><step>F</step><octave>5</octave></pitch><duration>4</duration><voice>1</voice><type>quarter</type><staff>1</staff></note><note><chord/><pitch><step>A</step><octave>5</octave></pitch><duration>4</duration><voice>1</voice><type>quarter</type><staff>1</staff></note><note><pitch><step>F</step><octave>5</octave></pitch><duration>4</duration><voice>1</voice><type>quarter</type><staff>1</staff></note><note><pitch><step>A</step><octave>5</octave></pitch><duration>4</duration><voice>1</voice><type>quarter</type><staff>1</staff></note><note><pitch><step>F</step><octave>5</octave></pitch><duration>4</duration><voice>1</voice><type>quarter</type><staff>1</staff></note><backup><duration>16</duration></backup><note><pitch><step>D</step><octave>2</octave></pitch><duration>16</duration><tie type="start"/><voice>2</voice><type>whole</type><staff>2</staff><notations><tied type="start"/></notations></note></measure><measure number="19"><attributes/><note><pitch><step>C</step><octave>5</octave></pitch><duration>4</duration><voice>1</voice><type>quarter</type><staff>1</staff></note><note><chord/><pitch><step>E</step><octave>5</octave></pitch><duration>4</duration><voice>1</voice><type>quarter</type><staff>1</staff></note><note><chord/><pitch><step>G</step><octave>5</octave></pitch><duration>4</duration><voice>1</voice><type>quarter</type><staff>1</staff></note><note><pitch><step>E</step><octave>5</octave></pitch><duration>4</duration><voice>1</voice><type>quarter</type><staff>1</staff></note><note><pitch><step>G</step><octave>5</octave></pitch><duration>4</duration><voice>1</voice><type>quarter</type><staff>1</staff></note><note><pitch><step>E</step><octave>5</octave></pitch><duration>4</duration><voice>1</voice><type>quarter</type><staff>1</staff></note><backup><duration>16</duration></backup><note><pitch><step>D</step><octave>2</octave></pitch><duration>16</duration><tie type="stop"/><voice>2</voice><type>whole</type><staff>2</staff><notations><tied type="stop"/></notations></note></measure><measure number="20"><attributes/><note><pitch><step>A</step><alter>1</alter><octave>4</octave></pitch><duration>4</duration><voice>1</voice><type>quarter</type><accidental>sharp</accidental><staff>1</staff></note><note><chord/><pitch><step>D</step><octave>5</octave></pitch><duration>4</duration><voice>1</voice><type>quarter</type><staff>1</staff></note><note><chord/><pitch><step>F</step><octave>5</octave></pitch><duration>4</duration><voice>1</voice><type>quarter</type><staff>1</staff></note><note><pitch><step>D</step><octave>5</octave></pitch><duration>4</duration><voice>1</voice><type>quarter</type><staff>1</staff></note><note><pitch><step>F</step><octave>5</octave></pitch><duration>4</duration><voice>1</voice><type>quarter</type><staff>1</staff></note><note><pitch><step>D</step><octave>5</octave></pitch><duration>4</duration><voice>1</voice><type>quarter</type><staff>1</staff></note><backup><duration>16</duration></backup><note><pitch><step>D</step><octave>2</octave></pitch><duration>16</duration><tie type="start"/><voice>2</voice><type>whole</type><staff>2</staff><notations><tied type="start"/></notations></note></measure><measure number="21"><attributes/><note><pitch><step>C</step><octave>5</octave></pitch><duration>4</duration><voice>1</voice><type>quarter</type><staff>1</staff></note><note><chord/><pitch><step>E</step><octave>5</octave></pitch><duration>4</duration><voice>1</voice><type>quarter</type><staff>1</staff></note><note><chord/><pitch><step>G</step><octave>5</octave></pitch><duration>4</duration><voice>1</voice><type>quarter</type><staff>1</staff></note><note><pitch><step>E</step><octave>5</octave></pitch><duration>4</duration><voice>1</voice><type>quarter</type><staff>1</staff></note><note><pitch><step>G</step><octave>5</octave></pitch><duration>4</duration><voice>1</voice><type>quarter</type><staff>1</staff></note><note><pitch><step>E</step><octave>5</octave></pitch><duration>4</duration><voice>1</voice><type>quarter</type><staff>1</staff></note><backup><duration>16</duration></backup><note><pitch><step>D</step><octave>2</octave></pitch><duration>16</duration><tie type="stop"/><voice>2</voice><type>whole</type><staff>2</staff><notations><tied type="stop"/></notations></note></measure><measure number="22"><attributes/><note><pitch><step>D</step><octave>5</octave></pitch><duration>4</duration><voice>1</voice><type>quarter</type><staff>1</staff></note><note><chord/><pitch><step>F</step><octave>5</octave></pitch><duration>4</duration><voice>1</voice><type>quarter</type><staff>1</staff></note><note><chord/><pitch><step>A</step><octave>5</octave></pitch><duration>4</duration><voice>1</voice><type>quarter</type><staff>1</staff></note><note><pitch><step>F</step><octave>5</octave></pitch><duration>4</duration><voice>1</voice><type>quarter</type><staff>1</staff></note><note><pitch><step>A</step><octave>5</octave></pitch><duration>4</duration><voice>1</voice><type>quarter</type><staff>1</staff></note><note><pitch><step>F</step><octave>5</octave></pitch><duration>4</duration><voice>1</voice><type>quarter</type><staff>1</staff></note><backup><duration>16</duration></backup><note><pitch><step>D</step><octave>2</octave></pitch><duration>2</duration><voice>2</voice><type>eighth</type><staff>2</staff><beam number="1">begin</beam></note><note><pitch><step>D</step><octave>2</octave></pitch><duration>2</duration><voice>2</voice><type>eighth</type><staff>2</staff><beam number="1">end</beam></note><note><pitch><step>D</step><octave>2</octave></pitch><duration>2</duration><voice>2</voice><type>eighth</type><staff>2</staff><beam number="1">begin</beam></note><note><pitch><step>D</step><octave>2</octave></pitch><duration>2</duration><voice>2</voice><type>eighth</type><staff>2</staff><beam number="1">end</beam></note><note><pitch><step>D</step><octave>2</octave></pitch><duration>2</duration><voice>2</voice><type>eighth</type><staff>2</staff><beam number="1">begin</beam></note><note><pitch><step>D</step><octave>2</octave></pitch><duration>2</duration><voice>2</voice><type>eighth</type><staff>2</staff><beam number="1">end</beam></note><note><pitch><step>D</step><octave>2</octave></pitch><duration>2</duration><voice>2</voice><type>eighth</type><staff>2</staff><beam number="1">begin</beam></note><note><pitch><step>D</step><octave>2</octave></pitch><duration>2</duration><voice>2</voice><type>eighth</type><staff>2</staff><beam number="1">end</beam></note></measure><measure number="23"><attributes/><note><pitch><step>C</step><octave>5</octave></pitch><duration>4</duration><voice>1</voice><type>quarter</type><staff>1</staff></note><note><chord/><pitch><step>E</step><octave>5</octave></pitch><duration>4</duration><voice>1</voice><type>quarter</type><staff>1</staff></note><note><chord/><pitch><step>G</step><octave>5</octave></pitch><duration>4</duration><voice>1</voice><type>quarter</type><staff>1</staff></note><note><pitch><step>E</step><octave>5</octave></pitch><duration>4</duration><voice>1</voice><type>quarter</type><staff>1</staff></note><note><pitch><step>G</step><octave>5</octave></pitch><duration>4</duration><voice>1</voice><type>quarter</type><staff>1</staff></note><note><pitch><step>E</step><octave>5</octave></pitch><duration>4</duration><voice>1</voice><type>quarter</type><staff>1</staff></note><backup><duration>16</duration></backup><note><pitch><step>D</step><octave>2</octave></pitch><duration>2</duration><voice>2</voice><type>eighth</type><staff>2</staff><beam number="1">begin</beam></note><note><pitch><step>D</step><octave>2</octave></pitch><duration>2</duration><voice>2</voice><type>eighth</type><staff>2</staff><beam number="1">end</beam></note><note><pitch><step>D</step><octave>2</octave></pitch><duration>2</duration><voice>2</voice><type>eighth</type><staff>2</staff><beam number="1">begin</beam></note><note><pitch><step>D</step><octave>2</octave></pitch><duration>2</duration><voice>2</voice><type>eighth</type><staff>2</staff><beam number="1">end</beam></note><note><pitch><step>D</step><octave>2</octave></pitch><duration>2</duration><voice>2</voice><type>eighth</type><staff>2</staff><beam number="1">begin</beam></note><note><pitch><step>D</step><octave>2</octave></pitch><duration>2</duration><voice>2</voice><type>eighth</type><staff>2</staff><beam number="1">end</beam></note><note><pitch><step>D</step><octave>2</octave></pitch><duration>2</duration><voice>2</voice><type>eighth</type><staff>2</staff><beam number="1">begin</beam></note><note><pitch><step>D</step><octave>2</octave></pitch><duration>2</duration><voice>2</voice><type>eighth</type><staff>2</staff><beam number="1">end</beam></note></measure><measure number="24"><attributes/><note><pitch><step>A</step><alter>1</alter><octave>4</octave></pitch><duration>4</duration><voice>1</voice><type>quarter</type><accidental>sharp</accidental><staff>1</staff></note><note><chord/><pitch><step>D</step><octave>5</octave></pitch><duration>4</duration><voice>1</voice><type>quarter</type><staff>1</staff></note><note><chord/><pitch><step>F</step><octave>5</octave></pitch><duration>4</duration><voice>1</voice><type>quarter</type><staff>1</staff></note><note><pitch><step>D</step><octave>5</octave></pitch><duration>4</duration><voice>1</voice><type>quarter</type><staff>1</staff></note><note><pitch><step>F</step><octave>5</octave></pitch><duration>4</duration><voice>1</voice><type>quarter</type><staff>1</staff></note><note><pitch><step>D</step><octave>5</octave></pitch><duration>4</duration><voice>1</voice><type>quarter</type><staff>1</staff></note><backup><duration>16</duration></backup><note><pitch><step>D</step><octave>2</octave></pitch><duration>2</duration><voice>2</voice><type>eighth</type><staff>2</staff><beam number="1">begin</beam></note><note><pitch><step>D</step><octave>2</octave></pitch><duration>2</duration><voice>2</voice><type>eighth</type><staff>2</staff><beam number="1">end</beam></note><note><pitch><step>D</step><octave>2</octave></pitch><duration>2</duration><voice>2</voice><type>eighth</type><staff>2</staff><beam number="1">begin</beam></note><note><pitch><step>D</step><octave>2</octave></pitch><duration>2</duration><voice>2</voice><type>eighth</type><staff>2</staff><beam number="1">end</beam></note><note><pitch><step>D</step><octave>2</octave></pitch><duration>2</duration><voice>2</voice><type>eighth</type><staff>2</staff><beam number="1">begin</beam></note><note><pitch><step>D</step><octave>2</octave></pitch><duration>2</duration><voice>2</voice><type>eighth</type><staff>2</staff><beam number="1">end</beam></note><note><pitch><step>D</step><octave>2</octave></pitch><duration>2</duration><voice>2</voice><type>eighth</type><staff>2</staff><beam number="1">begin</beam></note><note><pitch><step>D</step><octave>2</octave></pitch><duration>2</duration><voice>2</voice><type>eighth</type><staff>2</staff><beam number="1">end</beam></note></measure><measure number="25"><attributes/><note><pitch><step>D</step><octave>6</octave></pitch><duration>1</duration><voice>1</voice><type>16th</type><staff>1</staff><beam number="1">begin</beam><beam number="2">begin</beam></note><note><pitch><step>F</step><octave>6</octave></pitch><duration>1</duration><voice>1</voice><type>16th</type><staff>1</staff><beam number="1">continue</beam><beam number="2">continue</beam></note><note><pitch><step>A</step><octave>6</octave></pitch><duration>1</duration><voice>1</voice><type>16th</type><staff>1</staff><beam number="1">continue</beam><beam number="2">continue</beam></note><note><pitch><step>C</step><octave>6</octave></pitch><duration>1</duration><voice>1</voice><type>16th</type><staff>1</staff><beam number="1">end</beam><beam number="2">end</beam></note><note><pitch><step>E</step><octave>6</octave></pitch><duration>1</duration><voice>1</voice><type>16th</type><staff>1</staff><beam number="1">begin</beam><beam number="2">begin</beam></note><note><pitch><step>G</step><octave>6</octave></pitch><duration>1</duration><voice>1</voice><type>16th</type><staff>1</staff><beam number="1">continue</beam><beam number="2">continue</beam></note><note><pitch><step>A</step><alter>1</alter><octave>5</octave></pitch><duration>1</duration><voice>1</voice><type>16th</type><accidental>sharp</accidental><staff>1</staff><beam number="1">continue</beam><beam number="2">continue</beam></note><note><pitch><step>D</step><octave>6</octave></pitch><duration>1</duration><voice>1</voice><type>16th</type><staff>1</staff><beam number="1">end</beam><beam number="2">end</beam></note><note><pitch><step>F</step><octave>6</octave></pitch><duration>1</duration><voice>1</voice><type>16th</type><staff>1</staff><beam number="1">begin</beam><beam number="2">begin</beam></note><note><pitch><step>A</step><octave>5</octave></pitch><duration>1</duration><voice>1</voice><type>16th</type><accidental>natural</accidental><staff>1</staff><beam number="1">continue</beam><beam number="2">continue</beam></note><note><pitch><step>C</step><octave>6</octave></pitch><duration>1</duration><voice>1</voice><type>16th</type><staff>1</staff><beam number="1">continue</beam><beam number="2">continue</beam></note><note><pitch><step>E</step><octave>6</octave></pitch><duration>1</duration><voice>1</voice><type>16th</type><staff>1</staff><beam number="1">end</beam><beam number="2">end</beam></note><note><pitch><step>G</step><octave>5</octave></pitch><duration>1</duration><voice>1</voice><type>16th</type><staff>1</staff><beam number="1">begin</beam><beam number="2">begin</beam></note><note><pitch><step>A</step><alter>1</alter><octave>5</octave></pitch><duration>1</duration><voice>1</voice><type>16th</type><accidental>sharp</accidental><staff>1</staff><beam number="1">continue</beam><beam number="2">continue</beam></note><note><pitch><step>D</step><octave>6</octave></pitch><duration>1</duration><voice>1</voice><type>16th</type><staff>1</staff><beam number="1">continue</beam><beam number="2">continue</beam></note><note><pitch><step>A</step><alter>1</alter><octave>5</octave></pitch><duration>1</duration><tie type="start"/><voice>1</voice><type>16th</type><staff>1</staff><beam number="1">end</beam><beam number="2">end</beam><notations><tied type="start"/></notations></note><note><chord/><pitch><step>D</step><octave>6</octave></pitch><duration>1</duration><tie type="start"/><voice>1</voice><type>16th</type><staff>1</staff><notations><tied type="start"/></notations></note><note><chord/><pitch><step>F</step><octave>6</octave></pitch><duration>1</duration><tie type="start"/><voice>1</voice><type>16th</type><staff>1</staff><notations><tied type="start"/></notations></note><note><chord/><pitch><step>F</step><octave>5</octave></pitch><duration>1</duration><voice>1</voice><type>16th</type><staff>1</staff></note><direction placement="below"><direction-type><dynamics><f/></dynamics></direction-type><staff>2</staff><sound dynamics="90"/></direction><backup><duration>16</duration></backup><note><pitch><step>D</step><octave>4</octave></pitch><duration>1</duration><tie type="start"/><voice>2</voice><type>16th</type><staff>2</staff><beam number="1">begin</beam><beam number="2">forward hook</beam><notations><tied type="start"/></notations></note><note><pitch><step>D</step><octave>4</octave></pitch><duration>2</duration><tie type="stop"/><voice>2</voice><type>eighth</type><staff>2</staff><beam number="1">continue</beam><notations><tied type="stop"/></notations></note><note><pitch><step>C</step><octave>4</octave></pitch><duration>1</duration><tie type="start"/><voice>2</voice><type>16th</type><staff>2</staff><beam number="1">end</beam><beam number="2">backward hook</beam><notations><tied type="start"/></notations></note><note><pitch><step>C</step><octave>4</octave></pitch><duration>2</duration><tie type="stop"/><voice>2</voice><type>eighth</type><staff>2</staff><beam number="1">begin</beam><notations><tied type="stop"/></notations></note><note><pitch><step>A</step><alter>1</alter><octave>3</octave></pitch><duration>1</duration><tie type="start"/><voice>2</voice><type>16th</type><accidental>sharp</accidental><staff>2</staff><beam number="1">continue</beam><beam number="2">backward hook</beam><notations><tied type="start"/></notations></note><note><pitch><step>A</step><alter>1</alter><octave>3</octave></pitch><duration>2</duration><tie type="stop"/><voice>2</voice><type>eighth</type><staff>2</staff><beam number="1">end</beam><notations><tied type="stop"/></notations></note><note><pitch><step>A</step><octave>3</octave></pitch><duration>1</duration><tie type="start"/><voice>2</voice><type>16th</type><accidental>natural</accidental><staff>2</staff><beam number="1">begin</beam><beam number="2">forward hook</beam><notations><tied type="start"/></notations></note><note><pitch><step>A</step><octave>3</octave></pitch><duration>2</duration><tie type="stop"/><voice>2</voice><type>eighth</type><staff>2</staff><beam number="1">end</beam><notations><tied type="stop"/></notations></note><note><pitch><step>G</step><octave>3</octave></pitch><duration>3</duration><voice>2</voice><type>eighth</type><dot/><staff>2</staff><beam number="1">begin</beam></note><note><pitch><step>G</step><octave>3</octave></pitch><duration>1</duration><tie type="start"/><voice>2</voice><type>16th</type><staff>2</staff><beam number="1">end</beam><beam number="2">backward hook</beam><notations><tied type="start"/><articulations><accent/></articulations></notations></note><note><chord/><pitch><step>G</step><octave>2</octave></pitch><duration>1</duration><tie type="start"/><voice>2</voice><type>16th</type><staff>2</staff><notations><tied type="start"/></notations></note></measure><measure number="26"><attributes/><direction placement="above"><direction-type><metronome><beat-unit>quarter</beat-unit><per-minute>80</per-minute></metronome></direction-type><staff>1</staff></direction><note><pitch><step>F</step><octave>6</octave></pitch><duration>8</duration><tie type="stop"/><voice>1</voice><type>half</type><staff>1</staff><notations><tied type="stop"/></notations></note><note><chord/><pitch><step>D</step><octave>6</octave></pitch><duration>8</duration><tie type="stop"/><voice>1</voice><type>half</type><staff>1</staff><notations><tied type="stop"/></notations></note><note><chord/><pitch><step>A</step><alter>1</alter><octave>5</octave></pitch><duration>8</duration><tie type="stop"/><voice>1</voice><type>half</type><accidental>sharp</accidental><staff>1</staff><notations><tied type="stop"/></notations></note><note><chord/><pitch><step>G</step><octave>5</octave></pitch><duration>8</duration><voice>1</voice><type>half</type><staff>1</staff></note><note><pitch><step>E</step><octave>6</octave></pitch><duration>8</duration><voice>1</voice><type>half</type><staff>1</staff></note><note><chord/><pitch><step>C</step><octave>6</octave></pitch><duration>8</duration><voice>1</voice><type>half</type><staff>1</staff></note><note><chord/><pitch><step>A</step><octave>5</octave></pitch><duration>8</duration><voice>1</voice><type>half</type><accidental>natural</accidental><staff>1</staff></note><backup><duration>16</duration></backup><note><pitch><step>G</step><octave>3</octave></pitch><duration>16</duration><tie type="stop"/><tie type="start"/><voice>2</voice><type>whole</type><staff>2</staff><notations><tied type="stop"/><tied type="start"/></notations></note><note><chord/><pitch><step>G</step><octave>2</octave></pitch><duration>16</duration><tie type="stop"/><tie type="start"/><voice>2</voice><type>whole</type><staff>2</staff><notations><tied type="stop"/><tied type="start"/></notations></note><sound tempo="80"/></measure><measure number="27"><attributes/><note><pitch><step>D</step><octave>6</octave></pitch><duration>8</duration><voice>1</voice><type>half</type><staff>1</staff></note><note><chord/><pitch><step>A</step><alter>1</alter><octave>5</octave></pitch><duration>8</duration><voice>1</voice><type>half</type><accidental>sharp</accidental><staff>1</staff></note><note><chord/><pitch><step>G</step><octave>5</octave></pitch><duration>8</duration><voice>1</voice><type>half</type><staff>1</staff></note><note><pitch><step>C</step><octave>6</octave></pitch><duration>8</duration><voice>1</voice><type>half</type><staff>1</staff></note><note><chord/><pitch><step>A</step><octave>5</octave></pitch><duration>8</duration><voice>1</voice><type>half</type><accidental>natural</accidental><staff>1</staff></note><backup><duration>16</duration></backup><note><pitch><step>G</step><octave>3</octave></pitch><duration>16</duration><tie type="stop"/><voice>2</voice><type>whole</type><staff>2</staff><notations><tied type="stop"/></notations></note><note><chord/><pitch><step>G</step><octave>2</octave></pitch><duration>16</duration><tie type="stop"/><voice>2</voice><type>whole</type><staff>2</staff><notations><tied type="stop"/></notations></note></measure><measure number="28"><attributes/><direction placement="above"><direction-type><metronome><beat-unit>quarter</beat-unit><per-minute>160</per-minute></metronome></direction-type><staff>1</staff></direction><note><rest/><duration>4</duration><voice>1</voice><type>quarter</type><staff>1</staff></note><note><rest/><duration>4</duration><voice>1</voice><type>quarter</type><staff>1</staff></note><note><rest/><duration>4</duration><voice>1</voice><type>quarter</type><staff>1</staff></note><note><rest/><duration>4</duration><voice>1</voice><type>quarter</type><staff>1</staff></note><backup><duration>16</duration></backup><note><pitch><step>G</step><octave>2</octave></pitch><duration>2</duration><voice>2</voice><type>eighth</type><staff>2</staff><beam number="1">begin</beam></note><note><chord/><pitch><step>G</step><octave>3</octave></pitch><duration>2</duration><voice>2</voice><type>eighth</type><staff>2</staff></note><note><pitch><step>G</step><octave>2</octave></pitch><duration>2</duration><voice>2</voice><type>eighth</type><staff>2</staff><beam number="1">end</beam></note><note><chord/><pitch><step>G</step><octave>3</octave></pitch><duration>2</duration><voice>2</voice><type>eighth</type><staff>2</staff></note><note><pitch><step>G</step><octave>2</octave></pitch><duration>2</duration><voice>2</voice><type>eighth</type><staff>2</staff><beam number="1">begin</beam></note><note><chord/><pitch><step>G</step><octave>3</octave></pitch><duration>2</duration><voice>2</voice><type>eighth</type><staff>2</staff></note><note><pitch><step>G</step><octave>2</octave></pitch><duration>2</duration><voice>2</voice><type>eighth</type><staff>2</staff><beam number="1">end</beam></note><note><chord/><pitch><step>G</step><octave>3</octave></pitch><duration>2</duration><voice>2</voice><type>eighth</type><staff>2</staff></note><note><pitch><step>G</step><octave>2</octave></pitch><duration>2</duration><voice>2</voice><type>eighth</type><staff>2</staff><beam number="1">begin</beam></note><note><chord/><pitch><step>G</step><octave>3</octave></pitch><duration>2</duration><voice>2</voice><type>eighth</type><staff>2</staff></note><note><pitch><step>G</step><octave>2</octave></pitch><duration>2</duration><voice>2</voice><type>eighth</type><staff>2</staff><beam number="1">end</beam></note><note><chord/><pitch><step>G</step><octave>3</octave></pitch><duration>2</duration><voice>2</voice><type>eighth</type><staff>2</staff></note><note><pitch><step>G</step><octave>2</octave></pitch><duration>2</duration><voice>2</voice><type>eighth</type><staff>2</staff><beam number="1">begin</beam></note><note><chord/><pitch><step>G</step><octave>3</octave></pitch><duration>2</duration><voice>2</voice><type>eighth</type><staff>2</staff></note><note><pitch><step>G</step><octave>2</octave></pitch><duration>2</duration><voice>2</voice><type>eighth</type><staff>2</staff><beam number="1">end</beam></note><note><chord/><pitch><step>G</step><octave>3</octave></pitch><duration>2</duration><voice>2</voice><type>eighth</type><staff>2</staff></note><barline location="right"><bar-style>light-heavy</bar-style><repeat direction="backward" times="1" winged="none"/></barline><sound tempo="160"/></measure><measure number="29"><attributes/><note><rest/><duration>4</duration><voice>1</voice><type>quarter</type><staff>1</staff></note><note><rest/><duration>4</duration><voice>1</voice><type>quarter</type><staff>1</staff></note><note><rest/><duration>4</duration><voice>1</voice><type>quarter</type><staff>1</staff></note><note><rest/><duration>4</duration><voice>1</voice><type>quarter</type><staff>1</staff></note><backup><duration>16</duration></backup><note><rest/><duration>2</duration><voice>2</voice><type>eighth</type><staff>2</staff></note><note><rest/><duration>4</duration><voice>2</voice><type>quarter</type><staff>2</staff></note><note><rest/><duration>4</duration><voice>2</voice><type>quarter</type><staff>2</staff></note><note><rest/><duration>4</duration><voice>2</voice><type>quarter</type><staff>2</staff></note><note><rest/><duration>2</duration><voice>2</voice><type>eighth</type><staff>2</staff></note><barline location="right"><bar-style>light-heavy</bar-style></barline></measure></part></score-partwise>