<?xml version="1.0" encoding="UTF-8" standalone="no"?><!DOCTYPE score-partwise PUBLIC "-//Recordare//DTD MusicXML 3.0 Partwise//EN" "http://www.musicxml.org/dtds/partwise.dtd"><score-partwise version="3.0"><identification><creator type="composer">Ikori Meimoto</creator><creator type="lyricist">N/A</creator><encoding><software>Flat</software><encoding-date>2019-04-01</encoding-date></encoding><source>https://flat.io/score/5c8865af5639b07c02edf454-romeo-and-juliet-blessed-be-granted</source></identification><defaults><scaling><millimeters>7</millimeters><tenths>40</tenths></scaling><page-layout><page-height>1596.5714285714287</page-height><page-width>1233.7142857142858</page-width><page-margins type="both"><left-margin>38.857142857142854</left-margin><right-margin>38.857142857142854</right-margin><top-margin>38.857142857142854</top-margin><bottom-margin>38.857142857142854</bottom-margin></page-margins></page-layout><system-layout><system-distance>115.2</system-distance></system-layout><staff-layout><staff-distance>72.57142857142857</staff-distance></staff-layout></defaults><credit><credit-type>title</credit-type><credit-words>Romeo and Juliet - Blessed Be Granted</credit-words></credit><credit><credit-type>subtitle</credit-type><credit-words>Friar's Theme</credit-words></credit><part-list><score-part id="P1"><part-name>Grand Piano</part-name><part-abbreviation>Pno.</part-abbreviation><score-instrument id="P1-I1"><instrument-name>Grand Piano</instrument-name></score-instrument><midi-instrument id="P1-I1"><midi-channel>1</midi-channel><midi-program>1</midi-program></midi-instrument></score-part><score-part id="P2"><part-name>Flute</part-name><part-abbreviation>Fl.</part-abbreviation><score-instrument id="P2-I1"><instrument-name>Flute</instrument-name></score-instrument><midi-instrument id="P2-I1"><midi-channel>2</midi-channel><midi-program>74</midi-program><volume>100</volume></midi-instrument></score-part><score-part id="P3"><part-name>Brass Section</part-name><part-abbreviation>Brs. Se.</part-abbreviation><score-instrument id="P3-I1"><instrument-name>Brass Section</instrument-name></score-instrument><midi-instrument id="P3-I1"><midi-channel>3</midi-channel><midi-program>62</midi-program><volume>100</volume></midi-instrument></score-part><score-part id="P4"><part-name>String Ensemble</part-name><part-abbreviation>St. Ens.</part-abbreviation><score-instrument id="P4-I1"><instrument-name>String Ensemble</instrument-name></score-instrument><midi-instrument id="P4-I1"><midi-channel>4</midi-channel><midi-program>49</midi-program><volume>100</volume></midi-instrument></score-part><score-part id="P5"><part-name>Timpani</part-name><part-abbreviation>Timp.</part-abbreviation><score-instrument id="P5-I1"><instrument-name>Timpani</instrument-name></score-instrument><midi-instrument id="P5-I1"><midi-channel>5</midi-channel><midi-program>48</midi-program><volume>100</volume></midi-instrument></score-part></part-list><part id="P1"><measure number="1"><attributes><divisions>1</divisions><key><fifths>0</fifths></key><time><beats>4</beats><beat-type>4</beat-type></time><staves>2</staves><clef number="1"><sign>G</sign><line>2</line></clef><clef number="2"><sign>F</sign><line>4</line></clef><staff-details><staff-lines>5</staff-lines></staff-details></attributes><direction placement="above"><direction-type><metronome><beat-unit>quarter</beat-unit><per-minute>80</per-minute></metronome></direction-type><staff>1</staff></direction><note><rest/><duration>1</duration><voice>1</voice><type>quarter</type><staff>1</staff></note><note><rest/><duration>1</duration><voice>1</voice><type>quarter</type><staff>1</staff></note><note><rest/><duration>1</duration><voice>1</voice><type>quarter</type><staff>1</staff></note><note><rest/><duration>1</duration><voice>1</voice><type>quarter</type><staff>1</staff></note><backup><duration>4</duration></backup><note><pitch><step>E</step><octave>2</octave></pitch><duration>4</duration><voice>2</voice><type>whole</type><staff>2</staff></note><note><chord/><pitch><step>B</step><octave>2</octave></pitch><duration>4</duration><voice>2</voice><type>whole</type><staff>2</staff></note><sound tempo="80"/></measure><measure number="2"><attributes/><note><rest/><duration>1</duration><voice>1</voice><type>quarter</type><staff>1</staff></note><note><rest/><duration>1</duration><voice>1</voice><type>quarter</type><staff>1</staff></note><note><rest/><duration>1</duration><voice>1</voice><type>quarter</type><staff>1</staff></note><note><rest/><duration>1</duration><voice>1</voice><type>quarter</type><staff>1</staff></note><backup><duration>4</duration></backup><note><pitch><step>F</step><octave>2</octave></pitch><duration>2</duration><voice>2</voice><type>half</type><staff>2</staff></note><note><pitch><step>G</step><octave>2</octave></pitch><duration>2</duration><voice>2</voice><type>half</type><staff>2</staff></note></measure><measure number="3"><attributes/><note><rest/><duration>1</duration><voice>1</voice><type>quarter</type><staff>1</staff></note><note><rest/><duration>1</duration><voice>1</voice><type>quarter</type><staff>1</staff></note><note><rest/><duration>1</duration><voice>1</voice><type>quarter</type><staff>1</staff></note><note><rest/><duration>1</duration><voice>1</voice><type>quarter</type><staff>1</staff></note><backup><duration>4</duration></backup><note><pitch><step>A</step><octave>1</octave></pitch><duration>4</duration><voice>2</voice><type>whole</type><staff>2</staff></note></measure><measure number="4"><attributes/><note><rest/><duration>1</duration><voice>1</voice><type>quarter</type><staff>1</staff></note><note><rest/><duration>1</duration><voice>1</voice><type>quarter</type><staff>1</staff></note><note><rest/><duration>1</duration><voice>1</voice><type>quarter</type><staff>1</staff></note><note><rest/><duration>1</duration><voice>1</voice><type>quarter</type><staff>1</staff></note><backup><duration>4</duration></backup><note><pitch><step>A</step><octave>1</octave></pitch><duration>4</duration><voice>2</voice><type>whole</type><staff>2</staff></note></measure><measure number="5"><attributes/><note><rest/><duration>1</duration><voice>1</voice><type>quarter</type><staff>1</staff></note><note><rest/><duration>1</duration><voice>1</voice><type>quarter</type><staff>1</staff></note><note><rest/><duration>1</duration><voice>1</voice><type>quarter</type><staff>1</staff></note><note><rest/><duration>1</duration><voice>1</voice><type>quarter</type><staff>1</staff></note><backup><duration>4</duration></backup><note><pitch><step>A</step><octave>1</octave></pitch><duration>4</duration><voice>2</voice><type>whole</type><staff>2</staff></note></measure><measure number="6"><attributes/><note><rest/><duration>1</duration><voice>1</voice><type>quarter</type><staff>1</staff></note><note><rest/><duration>1</duration><voice>1</voice><type>quarter</type><staff>1</staff></note><note><rest/><duration>1</duration><voice>1</voice><type>quarter</type><staff>1</staff></note><note><rest/><duration>1</duration><voice>1</voice><type>quarter</type><staff>1</staff></note><backup><duration>4</duration></backup><note><pitch><step>A</step><octave>1</octave></pitch><duration>4</duration><voice>2</voice><type>whole</type><staff>2</staff></note></measure><measure number="7"><attributes/><note><rest/><duration>1</duration><voice>1</voice><type>quarter</type><staff>1</staff></note><note><rest/><duration>1</duration><voice>1</voice><type>quarter</type><staff>1</staff></note><note><rest/><duration>1</duration><voice>1</voice><type>quarter</type><staff>1</staff></note><note><rest/><duration>1</duration><voice>1</voice><type>quarter</type><staff>1</staff></note><backup><duration>4</duration></backup><note><pitch><step>A</step><octave>1</octave></pitch><duration>4</duration><voice>2</voice><type>whole</type><staff>2</staff></note></measure><measure number="8"><attributes/><note><rest/><duration>1</duration><voice>1</voice><type>quarter</type><staff>1</staff></note><note><rest/><duration>1</duration><voice>1</voice><type>quarter</type><staff>1</staff></note><note><rest/><duration>1</duration><voice>1</voice><type>quarter</type><staff>1</staff></note><note><rest/><duration>1</duration><voice>1</voice><type>quarter</type><staff>1</staff></note><backup><duration>4</duration></backup><note><pitch><step>A</step><octave>1</octave></pitch><duration>4</duration><voice>2</voice><type>whole</type><staff>2</staff></note></measure><measure number="9"><attributes/><note><rest/><duration>1</duration><voice>1</voice><type>quarter</type><staff>1</staff></note><note><rest/><duration>1</duration><voice>1</voice><type>quarter</type><staff>1</staff></note><note><rest/><duration>1</duration><voice>1</voice><type>quarter</type><staff>1</staff></note><note><rest/><duration>1</duration><voice>1</voice><type>quarter</type><staff>1</staff></note><backup><duration>4</duration></backup><note><pitch><step>A</step><octave>1</octave></pitch><duration>4</duration><voice>2</voice><type>whole</type><staff>2</staff></note></measure><measure number="10"><attributes/><note><rest/><duration>1</duration><voice>1</voice><type>quarter</type><staff>1</staff></note><note><rest/><duration>1</duration><voice>1</voice><type>quarter</type><staff>1</staff></note><note><rest/><duration>1</duration><voice>1</voice><type>quarter</type><staff>1</staff></note><note><rest/><duration>1</duration><voice>1</voice><type>quarter</type><staff>1</staff></note><backup><duration>4</duration></backup><note><pitch><step>A</step><octave>1</octave></pitch><duration>4</duration><voice>2</voice><type>whole</type><staff>2</staff></note></measure><measure number="11"><attributes><divisions>2</divisions></attributes><note><pitch><step>A</step><octave>4</octave></pitch><duration>1</duration><voice>1</voice><type>eighth</type><staff>1</staff><beam number="1">begin</beam></note><note><chord/><pitch><step>D</step><octave>5</octave></pitch><duration>1</duration><voice>1</voice><type>eighth</type><staff>1</staff></note><note><chord/><pitch><step>E</step><octave>4</octave></pitch><duration>1</duration><voice>1</voice><type>eighth</type><staff>1</staff></note><note><pitch><step>G</step><octave>4</octave></pitch><duration>1</duration><voice>1</voice><type>eighth</type><staff>1</staff><beam number="1">end</beam></note><note><pitch><step>B</step><octave>4</octave></pitch><duration>1</duration><voice>1</voice><type>eighth</type><staff>1</staff><beam number="1">begin</beam></note><note><pitch><step>E</step><octave>4</octave></pitch><duration>1</duration><voice>1</voice><type>eighth</type><staff>1</staff><beam number="1">end</beam></note><note><pitch><step>A</step><octave>4</octave></pitch><duration>4</duration><voice>1</voice><type>half</type><staff>1</staff></note><backup><duration>8</duration></backup><note><pitch><step>A</step><octave>1</octave></pitch><duration>8</duration><voice>2</voice><type>whole</type><staff>2</staff></note></measure><measure number="12"><attributes/><note><rest/><duration>1</duration><voice>1</voice><type>eighth</type><staff>1</staff></note><note><pitch><step>B</step><octave>4</octave></pitch><duration>2</duration><voice>1</voice><type>quarter</type><staff>1</staff></note><note><pitch><step>E</step><octave>4</octave></pitch><duration>1</duration><voice>1</voice><type>eighth</type><staff>1</staff></note><note><pitch><step>A</step><octave>4</octave></pitch><duration>2</duration><voice>1</voice><type>quarter</type><staff>1</staff></note><note><pitch><step>G</step><octave>4</octave></pitch><duration>1</duration><voice>1</voice><type>eighth</type><staff>1</staff><beam number="1">begin</beam></note><note><pitch><step>F</step><octave>4</octave></pitch><duration>1</duration><voice>1</voice><type>eighth</type><staff>1</staff><beam number="1">end</beam></note><backup><duration>8</duration></backup><note><pitch><step>A</step><octave>1</octave></pitch><duration>8</duration><voice>2</voice><type>whole</type><staff>2</staff></note></measure><measure number="13"><attributes/><note><pitch><step>E</step><octave>4</octave></pitch><duration>1</duration><voice>1</voice><type>eighth</type><staff>1</staff><beam number="1">begin</beam></note><note><pitch><step>D</step><octave>4</octave></pitch><duration>1</duration><voice>1</voice><type>eighth</type><staff>1</staff><beam number="1">end</beam></note><note><pitch><step>E</step><octave>4</octave></pitch><duration>1</duration><voice>1</voice><type>eighth</type><staff>1</staff></note><note><rest/><duration>1</duration><voice>1</voice><type>eighth</type><staff>1</staff></note><note><rest/><duration>1</duration><voice>1</voice><type>eighth</type><staff>1</staff></note><note><pitch><step>D</step><octave>4</octave></pitch><duration>1</duration><voice>1</voice><type>eighth</type><staff>1</staff></note><note><pitch><step>E</step><octave>4</octave></pitch><duration>1</duration><voice>1</voice><type>eighth</type><staff>1</staff><beam number="1">begin</beam></note><note><pitch><step>D</step><octave>4</octave></pitch><duration>1</duration><voice>1</voice><type>eighth</type><staff>1</staff><beam number="1">end</beam></note><backup><duration>8</duration></backup><note><pitch><step>A</step><octave>1</octave></pitch><duration>8</duration><voice>2</voice><type>whole</type><staff>2</staff></note></measure><measure number="14"><attributes/><note><pitch><step>E</step><octave>4</octave></pitch><duration>2</duration><voice>1</voice><type>quarter</type><staff>1</staff></note><note><rest/><duration>2</duration><voice>1</voice><type>quarter</type><staff>1</staff></note><note><rest/><duration>2</duration><voice>1</voice><type>quarter</type><staff>1</staff></note><note><rest/><duration>2</duration><voice>1</voice><type>quarter</type><staff>1</staff></note><backup><duration>8</duration></backup><note><pitch><step>A</step><octave>1</octave></pitch><duration>8</duration><voice>2</voice><type>whole</type><staff>2</staff></note></measure><measure number="15"><attributes/><note><pitch><step>D</step><octave>4</octave></pitch><duration>1</duration><voice>1</voice><type>eighth</type><staff>1</staff><beam number="1">begin</beam></note><note><chord/><pitch><step>G</step><octave>4</octave></pitch><duration>1</duration><voice>1</voice><type>eighth</type><staff>1</staff></note><note><pitch><step>E</step><octave>4</octave></pitch><duration>1</duration><voice>1</voice><type>eighth</type><staff>1</staff><beam number="1">end</beam></note><note><pitch><step>F</step><octave>4</octave></pitch><duration>2</duration><voice>1</voice><type>quarter</type><staff>1</staff></note><note><rest/><duration>2</duration><voice>1</voice><type>quarter</type><staff>1</staff></note><note><pitch><step>E</step><octave>4</octave></pitch><duration>1</duration><voice>1</voice><type>eighth</type><staff>1</staff><beam number="1">begin</beam></note><note><pitch><step>E</step><alter>1</alter><octave>4</octave></pitch><duration>1</duration><voice>1</voice><type>eighth</type><accidental>sharp</accidental><staff>1</staff><beam number="1">end</beam></note><backup><duration>8</duration></backup><note><pitch><step>A</step><octave>1</octave></pitch><duration>8</duration><voice>2</voice><type>whole</type><staff>2</staff></note></measure><measure number="16"><attributes/><note><pitch><step>G</step><octave>4</octave></pitch><duration>4</duration><voice>1</voice><type>half</type><staff>1</staff></note><note><pitch><step>A</step><octave>4</octave></pitch><duration>2</duration><voice>1</voice><type>quarter</type><staff>1</staff></note><note><pitch><step>B</step><octave>4</octave></pitch><duration>2</duration><voice>1</voice><type>quarter</type><staff>1</staff></note><backup><duration>8</duration></backup><note><pitch><step>A</step><octave>1</octave></pitch><duration>8</duration><voice>2</voice><type>whole</type><staff>2</staff></note></measure><measure number="17"><attributes/><note><pitch><step>A</step><octave>4</octave></pitch><duration>8</duration><voice>1</voice><type>whole</type><staff>1</staff></note><backup><duration>8</duration></backup><note><pitch><step>A</step><octave>1</octave></pitch><duration>8</duration><voice>2</voice><type>whole</type><staff>2</staff></note></measure><measure number="18"><attributes/><note><pitch><step>E</step><octave>5</octave></pitch><duration>8</duration><voice>1</voice><type>whole</type><staff>1</staff></note><backup><duration>8</duration></backup><note><pitch><step>A</step><octave>1</octave></pitch><duration>8</duration><voice>2</voice><type>whole</type><staff>2</staff></note><barline location="right"><bar-style>light-heavy</bar-style><repeat direction="backward" times="1" winged="none"/></barline></measure><measure number="19"><attributes/><note><rest/><duration>2</duration><voice>1</voice><type>quarter</type><staff>1</staff></note><note><rest/><duration>2</duration><voice>1</voice><type>quarter</type><staff>1</staff></note><note><rest/><duration>2</duration><voice>1</voice><type>quarter</type><staff>1</staff></note><note><rest/><duration>2</duration><voice>1</voice><type>quarter</type><staff>1</staff></note><backup><duration>8</duration></backup><note><rest/><duration>2</duration><voice>2</voice><type>quarter</type><staff>2</staff></note><note><rest/><duration>2</duration><voice>2</voice><type>quarter</type><staff>2</staff></note><note><rest/><duration>2</duration><voice>2</voice><type>quarter</type><staff>2</staff></note><note><rest/><duration>2</duration><voice>2</voice><type>quarter</type><staff>2</staff></note></measure><measure number="20"><attributes/><note><rest/><duration>2</duration><voice>1</voice><type>quarter</type><staff>1</staff></note><note><rest/><duration>2</duration><voice>1</voice><type>quarter</type><staff>1</staff></note><note><rest/><duration>2</duration><voice>1</voice><type>quarter</type><staff>1</staff></note><note><rest/><duration>2</duration><voice>1</voice><type>quarter</type><staff>1</staff></note><backup><duration>8</duration></backup><note><rest/><duration>2</duration><voice>2</voice><type>quarter</type><staff>2</staff></note><note><rest/><duration>2</duration><voice>2</voice><type>quarter</type><staff>2</staff></note><note><rest/><duration>2</duration><voice>2</voice><type>quarter</type><staff>2</staff></note><note><rest/><duration>2</duration><voice>2</voice><type>quarter</type><staff>2</staff></note><barline location="right"><bar-style>light-heavy</bar-style></barline></measure></part><part id="P2"><measure number="1"><attributes><divisions>1</divisions><key><fifths>0</fifths></key><time><beats>4</beats><beat-type>4</beat-type></time><clef><sign>G</sign><line>2</line></clef><staff-details><staff-lines>5</staff-lines></staff-details></attributes><note><rest/><duration>1</duration><voice>1</voice><type>quarter</type><staff>1</staff></note><note><rest/><duration>1</duration><voice>1</voice><type>quarter</type><staff>1</staff></note><note><rest/><duration>1</duration><voice>1</voice><type>quarter</type><staff>1</staff></note><note><rest/><duration>1</duration><voice>1</voice><type>quarter</type><staff>1</staff></note></measure><measure number="2"><attributes/><note><rest/><duration>1</duration><voice>1</voice><type>quarter</type><staff>1</staff></note><note><rest/><duration>1</duration><voice>1</voice><type>quarter</type><staff>1</staff></note><note><rest/><duration>1</duration><voice>1</voice><type>quarter</type><staff>1</staff></note><note><rest/><duration>1</duration><voice>1</voice><type>quarter</type><staff>1</staff></note></measure><measure number="3"><attributes><divisions>2</divisions></attributes><note><pitch><step>A</step><octave>4</octave></pitch><duration>2</duration><voice>1</voice><type>quarter</type><staff>1</staff></note><note><pitch><step>C</step><alter>1</alter><octave>5</octave></pitch><duration>1</duration><voice>1</voice><type>eighth</type><accidental>sharp</accidental><staff>1</staff><beam number="1">begin</beam></note><note><pitch><step>E</step><octave>5</octave></pitch><duration>1</duration><voice>1</voice><type>eighth</type><staff>1</staff><beam number="1">end</beam></note><note><pitch><step>D</step><octave>5</octave></pitch><duration>4</duration><voice>1</voice><type>half</type><staff>1</staff></note></measure><measure number="4"><attributes/><note><rest/><duration>1</duration><voice>1</voice><type>eighth</type><staff>1</staff></note><note><pitch><step>A</step><octave>4</octave></pitch><duration>2</duration><voice>1</voice><type>quarter</type><staff>1</staff></note><note><pitch><step>E</step><octave>4</octave></pitch><duration>1</duration><voice>1</voice><type>eighth</type><staff>1</staff></note><note><pitch><step>F</step><alter>1</alter><octave>4</octave></pitch><duration>1</duration><voice>1</voice><type>eighth</type><accidental>sharp</accidental><staff>1</staff><beam number="1">begin</beam></note><note><pitch><step>A</step><octave>4</octave></pitch><duration>1</duration><voice>1</voice><type>eighth</type><staff>1</staff><beam number="1">end</beam></note><note><pitch><step>B</step><octave>4</octave></pitch><duration>1</duration><voice>1</voice><type>eighth</type><staff>1</staff><beam number="1">begin</beam></note><note><pitch><step>D</step><alter>-1</alter><octave>5</octave></pitch><duration>1</duration><voice>1</voice><type>eighth</type><accidental>flat</accidental><staff>1</staff><beam number="1">end</beam></note></measure><measure number="5"><attributes/><note><pitch><step>B</step><octave>4</octave></pitch><duration>1</duration><voice>1</voice><type>eighth</type><staff>1</staff><beam number="1">begin</beam></note><note><pitch><step>D</step><alter>-1</alter><octave>5</octave></pitch><duration>1</duration><voice>1</voice><type>eighth</type><accidental>flat</accidental><staff>1</staff><beam number="1">end</beam></note><note><pitch><step>B</step><octave>4</octave></pitch><duration>4</duration><voice>1</voice><type>half</type><staff>1</staff></note><note><pitch><step>A</step><octave>4</octave></pitch><duration>2</duration><voice>1</voice><type>quarter</type><staff>1</staff></note></measure><measure number="6"><attributes/><note><pitch><step>A</step><octave>4</octave></pitch><duration>1</duration><voice>1</voice><type>eighth</type><staff>1</staff><beam number="1">begin</beam></note><note><pitch><step>E</step><octave>4</octave></pitch><duration>1</duration><voice>1</voice><type>eighth</type><staff>1</staff><beam number="1">end</beam></note><note><pitch><step>G</step><alter>-1</alter><octave>4</octave></pitch><duration>1</duration><voice>1</voice><type>eighth</type><accidental>flat</accidental><staff>1</staff><beam number="1">begin</beam></note><note><pitch><step>A</step><octave>4</octave></pitch><duration>1</duration><voice>1</voice><type>eighth</type><staff>1</staff><beam number="1">end</beam></note><note><pitch><step>B</step><octave>4</octave></pitch><duration>1</duration><voice>1</voice><type>eighth</type><staff>1</staff><beam number="1">begin</beam></note><note><pitch><step>D</step><alter>-1</alter><octave>5</octave></pitch><duration>1</duration><voice>1</voice><type>eighth</type><accidental>flat</accidental><staff>1</staff><beam number="1">end</beam></note><note><pitch><step>B</step><octave>4</octave></pitch><duration>2</duration><voice>1</voice><type>quarter</type><staff>1</staff></note></measure><measure number="7"><attributes/><note><pitch><step>A</step><octave>4</octave></pitch><duration>1</duration><voice>1</voice><type>eighth</type><staff>1</staff><beam number="1">begin</beam></note><note><pitch><step>B</step><octave>4</octave></pitch><duration>1</duration><voice>1</voice><type>eighth</type><staff>1</staff><beam number="1">end</beam></note><note><pitch><step>D</step><alter>-1</alter><octave>5</octave></pitch><duration>1</duration><voice>1</voice><type>eighth</type><accidental>flat</accidental><staff>1</staff><beam number="1">begin</beam></note><note><pitch><step>A</step><octave>4</octave></pitch><duration>1</duration><voice>1</voice><type>eighth</type><staff>1</staff><beam number="1">end</beam></note><note><pitch><step>E</step><octave>5</octave></pitch><duration>4</duration><voice>1</voice><type>half</type><staff>1</staff></note></measure><measure number="8"><attributes/><note><rest/><duration>2</duration><voice>1</voice><type>quarter</type><staff>1</staff></note><note><pitch><step>D</step><octave>5</octave></pitch><duration>1</duration><voice>1</voice><type>eighth</type><staff>1</staff><beam number="1">begin</beam></note><note><pitch><step>E</step><octave>5</octave></pitch><duration>1</duration><voice>1</voice><type>eighth</type><staff>1</staff><beam number="1">end</beam></note><note><pitch><step>D</step><octave>5</octave></pitch><duration>2</duration><voice>1</voice><type>quarter</type><staff>1</staff></note><note><pitch><step>C</step><alter>1</alter><octave>5</octave></pitch><duration>1</duration><voice>1</voice><type>eighth</type><accidental>sharp</accidental><staff>1</staff><beam number="1">begin</beam></note><note><pitch><step>B</step><octave>4</octave></pitch><duration>1</duration><voice>1</voice><type>eighth</type><staff>1</staff><beam number="1">end</beam></note></measure><measure number="9"><attributes/><note><pitch><step>A</step><octave>4</octave></pitch><duration>2</duration><voice>1</voice><type>quarter</type><staff>1</staff></note><note><pitch><step>C</step><alter>1</alter><octave>5</octave></pitch><duration>1</duration><voice>1</voice><type>eighth</type><accidental>sharp</accidental><staff>1</staff><beam number="1">begin</beam></note><note><pitch><step>E</step><octave>5</octave></pitch><duration>1</duration><voice>1</voice><type>eighth</type><staff>1</staff><beam number="1">end</beam></note><note><pitch><step>D</step><octave>5</octave></pitch><duration>1</duration><voice>1</voice><type>eighth</type><staff>1</staff><beam number="1">begin</beam></note><note><pitch><step>E</step><octave>5</octave></pitch><duration>1</duration><voice>1</voice><type>eighth</type><staff>1</staff><beam number="1">end</beam></note><note><pitch><step>D</step><octave>5</octave></pitch><duration>2</duration><voice>1</voice><type>quarter</type><staff>1</staff></note></measure><measure number="10"><attributes/><note><pitch><step>A</step><octave>5</octave></pitch><duration>1</duration><voice>1</voice><type>eighth</type><staff>1</staff><beam number="1">begin</beam></note><note><pitch><step>E</step><octave>5</octave></pitch><duration>1</duration><voice>1</voice><type>eighth</type><staff>1</staff><beam number="1">end</beam></note><note><pitch><step>F</step><alter>1</alter><octave>5</octave></pitch><duration>1</duration><voice>1</voice><type>eighth</type><accidental>sharp</accidental><staff>1</staff><beam number="1">begin</beam></note><note><pitch><step>A</step><octave>5</octave></pitch><duration>1</duration><voice>1</voice><type>eighth</type><staff>1</staff><beam number="1">end</beam></note><note><pitch><step>F</step><alter>-1</alter><octave>5</octave></pitch><duration>2</duration><voice>1</voice><type>quarter</type><accidental>flat</accidental><staff>1</staff></note><note><pitch><step>C</step><alter>1</alter><octave>5</octave></pitch><duration>1</duration><voice>1</voice><type>eighth</type><accidental>sharp</accidental><staff>1</staff><beam number="1">begin</beam></note><note><pitch><step>B</step><octave>4</octave></pitch><duration>1</duration><voice>1</voice><type>eighth</type><staff>1</staff><beam number="1">end</beam></note></measure><measure number="11"><attributes/><note><rest/><duration>1</duration><voice>1</voice><type>eighth</type><staff>1</staff></note><note><rest/><duration>1</duration><voice>1</voice><type>eighth</type><staff>1</staff></note><note><rest/><duration>2</duration><voice>1</voice><type>quarter</type><staff>1</staff></note><note><rest/><duration>2</duration><voice>1</voice><type>quarter</type><staff>1</staff></note><note><rest/><duration>2</duration><voice>1</voice><type>quarter</type><staff>1</staff></note></measure><measure number="12"><attributes/><note><rest/><duration>2</duration><voice>1</voice><type>quarter</type><staff>1</staff></note><note><rest/><duration>2</duration><voice>1</voice><type>quarter</type><staff>1</staff></note><note><rest/><duration>2</duration><voice>1</voice><type>quarter</type><staff>1</staff></note><note><rest/><duration>2</duration><voice>1</voice><type>quarter</type><staff>1</staff></note></measure><measure number="13"><attributes/><note><rest/><duration>2</duration><voice>1</voice><type>quarter</type><staff>1</staff></note><note><rest/><duration>2</duration><voice>1</voice><type>quarter</type><staff>1</staff></note><note><rest/><duration>2</duration><voice>1</voice><type>quarter</type><staff>1</staff></note><note><rest/><duration>2</duration><voice>1</voice><type>quarter</type><staff>1</staff></note></measure><measure number="14"><attributes/><note><rest/><duration>2</duration><voice>1</voice><type>quarter</type><staff>1</staff></note><note><rest/><duration>2</duration><voice>1</voice><type>quarter</type><staff>1</staff></note><note><rest/><duration>2</duration><voice>1</voice><type>quarter</type><staff>1</staff></note><note><rest/><duration>2</duration><voice>1</voice><type>quarter</type><staff>1</staff></note></measure><measure number="15"><attributes/><note><rest/><duration>2</duration><voice>1</voice><type>quarter</type><staff>1</staff></note><note><rest/><duration>2</duration><voice>1</voice><type>quarter</type><staff>1</staff></note><note><rest/><duration>2</duration><voice>1</voice><type>quarter</type><staff>1</staff></note><note><rest/><duration>2</duration><voice>1</voice><type>quarter</type><staff>1</staff></note></measure><measure number="16"><attributes/><note><rest/><duration>2</duration><voice>1</voice><type>quarter</type><staff>1</staff></note><note><rest/><duration>2</duration><voice>1</voice><type>quarter</type><staff>1</staff></note><note><rest/><duration>2</duration><voice>1</voice><type>quarter</type><staff>1</staff></note><note><rest/><duration>2</duration><voice>1</voice><type>quarter</type><staff>1</staff></note></measure><measure number="17"><attributes/><note><rest/><duration>2</duration><voice>1</voice><type>quarter</type><staff>1</staff></note><note><rest/><duration>2</duration><voice>1</voice><type>quarter</type><staff>1</staff></note><note><rest/><duration>2</duration><voice>1</voice><type>quarter</type><staff>1</staff></note><note><rest/><duration>2</duration><voice>1</voice><type>quarter</type><staff>1</staff></note></measure><measure number="18"><attributes/><note><rest/><duration>2</duration><voice>1</voice><type>quarter</type><staff>1</staff></note><note><rest/><duration>2</duration><voice>1</voice><type>quarter</type><staff>1</staff></note><note><rest/><duration>2</duration><voice>1</voice><type>quarter</type><staff>1</staff></note><note><rest/><duration>2</duration><voice>1</voice><type>quarter</type><staff>1</staff></note><barline location="right"><bar-style>light-heavy</bar-style><repeat direction="backward" times="1" winged="none"/></barline></measure><measure number="19"><attributes/><note><rest/><duration>2</duration><voice>1</voice><type>quarter</type><staff>1</staff></note><note><rest/><duration>2</duration><voice>1</voice><type>quarter</type><staff>1</staff></note><note><rest/><duration>2</duration><voice>1</voice><type>quarter</type><staff>1</staff></note><note><rest/><duration>2</duration><voice>1</voice><type>quarter</type><staff>1</staff></note></measure><measure number="20"><attributes/><note><rest/><duration>2</duration><voice>1</voice><type>quarter</type><staff>1</staff></note><note><rest/><duration>2</duration><voice>1</voice><type>quarter</type><staff>1</staff></note><note><rest/><duration>2</duration><voice>1</voice><type>quarter</type><staff>1</staff></note><note><rest/><duration>2</duration><voice>1</voice><type>quarter</type><staff>1</staff></note><barline location="right"><bar-style>light-heavy</bar-style></barline></measure></part><part id="P3"><measure number="1"><attributes><divisions>1</divisions><key><fifths>0</fifths></key><time><beats>4</beats><beat-type>4</beat-type></time><staves>2</staves><clef number="1"><sign>G</sign><line>2</line></clef><clef number="2"><sign>F</sign><line>4</line></clef><staff-details><staff-lines>5</staff-lines></staff-details></attributes><note><rest/><duration>1</duration><voice>1</voice><type>quarter</type><staff>1</staff></note><note><rest/><duration>1</duration><voice>1</voice><type>quarter</type><staff>1</staff></note><note><rest/><duration>1</duration><voice>1</voice><type>quarter</type><staff>1</staff></note><note><rest/><duration>1</duration><voice>1</voice><type>quarter</type><staff>1</staff></note><backup><duration>4</duration></backup><note><pitch><step>E</step><octave>2</octave></pitch><duration>4</duration><voice>2</voice><type>whole</type><staff>2</staff></note></measure><measure number="2"><attributes/><note><rest/><duration>1</duration><voice>1</voice><type>quarter</type><staff>1</staff></note><note><rest/><duration>1</duration><voice>1</voice><type>quarter</type><staff>1</staff></note><note><rest/><duration>1</duration><voice>1</voice><type>quarter</type><staff>1</staff></note><note><rest/><duration>1</duration><voice>1</voice><type>quarter</type><staff>1</staff></note><backup><duration>4</duration></backup><note><pitch><step>F</step><octave>2</octave></pitch><duration>2</duration><voice>2</voice><type>half</type><staff>2</staff></note><note><pitch><step>G</step><octave>2</octave></pitch><duration>2</duration><voice>2</voice><type>half</type><staff>2</staff></note></measure><measure number="3"><attributes/><note><rest/><duration>1</duration><voice>1</voice><type>quarter</type><staff>1</staff></note><note><rest/><duration>1</duration><voice>1</voice><type>quarter</type><staff>1</staff></note><note><rest/><duration>1</duration><voice>1</voice><type>quarter</type><staff>1</staff></note><note><rest/><duration>1</duration><voice>1</voice><type>quarter</type><staff>1</staff></note><backup><duration>4</duration></backup><note><pitch><step>A</step><octave>2</octave></pitch><duration>3</duration><voice>2</voice><type>half</type><dot/><staff>2</staff></note><note><pitch><step>E</step><octave>2</octave></pitch><duration>1</duration><voice>2</voice><type>quarter</type><staff>2</staff></note></measure><measure number="4"><attributes/><note><rest/><duration>1</duration><voice>1</voice><type>quarter</type><staff>1</staff></note><note><rest/><duration>1</duration><voice>1</voice><type>quarter</type><staff>1</staff></note><note><rest/><duration>1</duration><voice>1</voice><type>quarter</type><staff>1</staff></note><note><rest/><duration>1</duration><voice>1</voice><type>quarter</type><staff>1</staff></note><backup><duration>4</duration></backup><note><pitch><step>A</step><octave>2</octave></pitch><duration>3</duration><voice>2</voice><type>half</type><dot/><staff>2</staff></note><note><pitch><step>E</step><octave>2</octave></pitch><duration>1</duration><voice>2</voice><type>quarter</type><staff>2</staff></note></measure><measure number="5"><attributes/><note><rest/><duration>1</duration><voice>1</voice><type>quarter</type><staff>1</staff></note><note><rest/><duration>1</duration><voice>1</voice><type>quarter</type><staff>1</staff></note><note><rest/><duration>1</duration><voice>1</voice><type>quarter</type><staff>1</staff></note><note><rest/><duration>1</duration><voice>1</voice><type>quarter</type><staff>1</staff></note><backup><duration>4</duration></backup><note><pitch><step>A</step><octave>2</octave></pitch><duration>3</duration><voice>2</voice><type>half</type><dot/><staff>2</staff></note><note><pitch><step>E</step><octave>2</octave></pitch><duration>1</duration><voice>2</voice><type>quarter</type><staff>2</staff></note></measure><measure number="6"><attributes/><note><rest/><duration>1</duration><voice>1</voice><type>quarter</type><staff>1</staff></note><note><rest/><duration>1</duration><voice>1</voice><type>quarter</type><staff>1</staff></note><note><rest/><duration>1</duration><voice>1</voice><type>quarter</type><staff>1</staff></note><note><rest/><duration>1</duration><voice>1</voice><type>quarter</type><staff>1</staff></note><backup><duration>4</duration></backup><note><pitch><step>A</step><octave>2</octave></pitch><duration>3</duration><voice>2</voice><type>half</type><dot/><staff>2</staff></note><note><pitch><step>E</step><octave>2</octave></pitch><duration>1</duration><voice>2</voice><type>quarter</type><staff>2</staff></note></measure><measure number="7"><attributes/><note><rest/><duration>1</duration><voice>1</voice><type>quarter</type><staff>1</staff></note><note><rest/><duration>1</duration><voice>1</voice><type>quarter</type><staff>1</staff></note><note><rest/><duration>1</duration><voice>1</voice><type>quarter</type><staff>1</staff></note><note><rest/><duration>1</duration><voice>1</voice><type>quarter</type><staff>1</staff></note><backup><duration>4</duration></backup><note><pitch><step>A</step><octave>2</octave></pitch><duration>3</duration><voice>2</voice><type>half</type><dot/><staff>2</staff></note><note><pitch><step>E</step><octave>2</octave></pitch><duration>1</duration><voice>2</voice><type>quarter</type><staff>2</staff></note></measure><measure number="8"><attributes/><note><rest/><duration>1</duration><voice>1</voice><type>quarter</type><staff>1</staff></note><note><rest/><duration>1</duration><voice>1</voice><type>quarter</type><staff>1</staff></note><note><rest/><duration>1</duration><voice>1</voice><type>quarter</type><staff>1</staff></note><note><rest/><duration>1</duration><voice>1</voice><type>quarter</type><staff>1</staff></note><backup><duration>4</duration></backup><note><pitch><step>A</step><octave>2</octave></pitch><duration>3</duration><voice>2</voice><type>half</type><dot/><staff>2</staff></note><note><pitch><step>E</step><octave>2</octave></pitch><duration>1</duration><voice>2</voice><type>quarter</type><staff>2</staff></note></measure><measure number="9"><attributes/><note><rest/><duration>1</duration><voice>1</voice><type>quarter</type><staff>1</staff></note><note><rest/><duration>1</duration><voice>1</voice><type>quarter</type><staff>1</staff></note><note><rest/><duration>1</duration><voice>1</voice><type>quarter</type><staff>1</staff></note><note><rest/><duration>1</duration><voice>1</voice><type>quarter</type><staff>1</staff></note><backup><duration>4</duration></backup><note><pitch><step>A</step><octave>2</octave></pitch><duration>3</duration><voice>2</voice><type>half</type><dot/><staff>2</staff></note><note><pitch><step>E</step><octave>2</octave></pitch><duration>1</duration><voice>2</voice><type>quarter</type><staff>2</staff></note></measure><measure number="10"><attributes/><note><rest/><duration>1</duration><voice>1</voice><type>quarter</type><staff>1</staff></note><note><rest/><duration>1</duration><voice>1</voice><type>quarter</type><staff>1</staff></note><note><rest/><duration>1</duration><voice>1</voice><type>quarter</type><staff>1</staff></note><note><rest/><duration>1</duration><voice>1</voice><type>quarter</type><staff>1</staff></note><backup><duration>4</duration></backup><note><pitch><step>A</step><octave>2</octave></pitch><duration>3</duration><voice>2</voice><type>half</type><dot/><staff>2</staff></note><note><pitch><step>E</step><octave>2</octave></pitch><duration>1</duration><voice>2</voice><type>quarter</type><staff>2</staff></note></measure><measure number="11"><attributes/><note><rest/><duration>1</duration><voice>1</voice><type>quarter</type><staff>1</staff></note><note><rest/><duration>1</duration><voice>1</voice><type>quarter</type><staff>1</staff></note><note><rest/><duration>1</duration><voice>1</voice><type>quarter</type><staff>1</staff></note><note><rest/><duration>1</duration><voice>1</voice><type>quarter</type><staff>1</staff></note><backup><duration>4</duration></backup><note><pitch><step>A</step><octave>2</octave></pitch><duration>3</duration><voice>2</voice><type>half</type><dot/><staff>2</staff></note><note><pitch><step>E</step><octave>2</octave></pitch><duration>1</duration><voice>2</voice><type>quarter</type><staff>2</staff></note></measure><measure number="12"><attributes/><note><rest/><duration>1</duration><voice>1</voice><type>quarter</type><staff>1</staff></note><note><rest/><duration>1</duration><voice>1</voice><type>quarter</type><staff>1</staff></note><note><rest/><duration>1</duration><voice>1</voice><type>quarter</type><staff>1</staff></note><note><rest/><duration>1</duration><voice>1</voice><type>quarter</type><staff>1</staff></note><backup><duration>4</duration></backup><note><pitch><step>A</step><octave>2</octave></pitch><duration>3</duration><voice>2</voice><type>half</type><dot/><staff>2</staff></note><note><pitch><step>E</step><octave>2</octave></pitch><duration>1</duration><voice>2</voice><type>quarter</type><staff>2</staff></note></measure><measure number="13"><attributes/><note><rest/><duration>1</duration><voice>1</voice><type>quarter</type><staff>1</staff></note><note><rest/><duration>1</duration><voice>1</voice><type>quarter</type><staff>1</staff></note><note><rest/><duration>1</duration><voice>1</voice><type>quarter</type><staff>1</staff></note><note><rest/><duration>1</duration><voice>1</voice><type>quarter</type><staff>1</staff></note><backup><duration>4</duration></backup><note><pitch><step>A</step><octave>2</octave></pitch><duration>3</duration><voice>2</voice><type>half</type><dot/><staff>2</staff></note><note><pitch><step>E</step><octave>2</octave></pitch><duration>1</duration><voice>2</voice><type>quarter</type><staff>2</staff></note></measure><measure number="14"><attributes/><note><rest/><duration>1</duration><voice>1</voice><type>quarter</type><staff>1</staff></note><note><rest/><duration>1</duration><voice>1</voice><type>quarter</type><staff>1</staff></note><note><rest/><duration>1</duration><voice>1</voice><type>quarter</type><staff>1</staff></note><note><rest/><duration>1</duration><voice>1</voice><type>quarter</type><staff>1</staff></note><backup><duration>4</duration></backup><note><pitch><step>A</step><octave>2</octave></pitch><duration>3</duration><voice>2</voice><type>half</type><dot/><staff>2</staff></note><note><pitch><step>E</step><octave>2</octave></pitch><duration>1</duration><voice>2</voice><type>quarter</type><staff>2</staff></note></measure><measure number="15"><attributes/><note><rest/><duration>1</duration><voice>1</voice><type>quarter</type><staff>1</staff></note><note><rest/><duration>1</duration><voice>1</voice><type>quarter</type><staff>1</staff></note><note><rest/><duration>1</duration><voice>1</voice><type>quarter</type><staff>1</staff></note><note><rest/><duration>1</duration><voice>1</voice><type>quarter</type><staff>1</staff></note><backup><duration>4</duration></backup><note><pitch><step>A</step><octave>2</octave></pitch><duration>3</duration><voice>2</voice><type>half</type><dot/><staff>2</staff></note><note><pitch><step>E</step><octave>2</octave></pitch><duration>1</duration><voice>2</voice><type>quarter</type><staff>2</staff></note></measure><measure number="16"><attributes/><note><rest/><duration>1</duration><voice>1</voice><type>quarter</type><staff>1</staff></note><note><rest/><duration>1</duration><voice>1</voice><type>quarter</type><staff>1</staff></note><note><rest/><duration>1</duration><voice>1</voice><type>quarter</type><staff>1</staff></note><note><rest/><duration>1</duration><voice>1</voice><type>quarter</type><staff>1</staff></note><backup><duration>4</duration></backup><note><pitch><step>A</step><octave>2</octave></pitch><duration>3</duration><voice>2</voice><type>half</type><dot/><staff>2</staff></note><note><pitch><step>E</step><octave>2</octave></pitch><duration>1</duration><voice>2</voice><type>quarter</type><staff>2</staff></note></measure><measure number="17"><attributes/><note><rest/><duration>1</duration><voice>1</voice><type>quarter</type><staff>1</staff></note><note><rest/><duration>1</duration><voice>1</voice><type>quarter</type><staff>1</staff></note><note><rest/><duration>1</duration><voice>1</voice><type>quarter</type><staff>1</staff></note><note><rest/><duration>1</duration><voice>1</voice><type>quarter</type><staff>1</staff></note><backup><duration>4</duration></backup><note><pitch><step>A</step><octave>2</octave></pitch><duration>3</duration><voice>2</voice><type>half</type><dot/><staff>2</staff></note><note><pitch><step>E</step><octave>2</octave></pitch><duration>1</duration><voice>2</voice><type>quarter</type><staff>2</staff></note></measure><measure number="18"><attributes/><note><rest/><duration>1</duration><voice>1</voice><type>quarter</type><staff>1</staff></note><note><rest/><duration>1</duration><voice>1</voice><type>quarter</type><staff>1</staff></note><note><rest/><duration>1</duration><voice>1</voice><type>quarter</type><staff>1</staff></note><note><rest/><duration>1</duration><voice>1</voice><type>quarter</type><staff>1</staff></note><backup><duration>4</duration></backup><note><pitch><step>A</step><octave>2</octave></pitch><duration>4</duration><voice>2</voice><type>whole</type><staff>2</staff></note><barline location="right"><bar-style>light-heavy</bar-style><repeat direction="backward" times="1" winged="none"/></barline></measure><measure number="19"><attributes/><note><rest/><duration>1</duration><voice>1</voice><type>quarter</type><staff>1</staff></note><note><rest/><duration>1</duration><voice>1</voice><type>quarter</type><staff>1</staff></note><note><rest/><duration>1</duration><voice>1</voice><type>quarter</type><staff>1</staff></note><note><rest/><duration>1</duration><voice>1</voice><type>quarter</type><staff>1</staff></note><backup><duration>4</duration></backup><note><rest/><duration>1</duration><voice>2</voice><type>quarter</type><staff>2</staff></note><note><rest/><duration>1</duration><voice>2</voice><type>quarter</type><staff>2</staff></note><note><rest/><duration>1</duration><voice>2</voice><type>quarter</type><staff>2</staff></note><note><rest/><duration>1</duration><voice>2</voice><type>quarter</type><staff>2</staff></note></measure><measure number="20"><attributes/><note><rest/><duration>1</duration><voice>1</voice><type>quarter</type><staff>1</staff></note><note><rest/><duration>1</duration><voice>1</voice><type>quarter</type><staff>1</staff></note><note><rest/><duration>1</duration><voice>1</voice><type>quarter</type><staff>1</staff></note><note><rest/><duration>1</duration><voice>1</voice><type>quarter</type><staff>1</staff></note><backup><duration>4</duration></backup><note><rest/><duration>1</duration><voice>2</voice><type>quarter</type><staff>2</staff></note><note><rest/><duration>1</duration><voice>2</voice><type>quarter</type><staff>2</staff></note><note><rest/><duration>1</duration><voice>2</voice><type>quarter</type><staff>2</staff></note><note><rest/><duration>1</duration><voice>2</voice><type>quarter</type><staff>2</staff></note><barline location="right"><bar-style>light-heavy</bar-style></barline></measure></part><part id="P4"><measure number="1"><attributes><divisions>1</divisions><key><fifths>0</fifths></key><time><beats>4</beats><beat-type>4</beat-type></time><staves>2</staves><clef number="1"><sign>G</sign><line>2</line></clef><clef number="2"><sign>F</sign><line>4</line></clef><staff-details><staff-lines>5</staff-lines></staff-details></attributes><note><rest/><duration>1</duration><voice>1</voice><type>quarter</type><staff>1</staff></note><note><rest/><duration>1</duration><voice>1</voice><type>quarter</type><staff>1</staff></note><note><rest/><duration>1</duration><voice>1</voice><type>quarter</type><staff>1</staff></note><note><rest/><duration>1</duration><voice>1</voice><type>quarter</type><staff>1</staff></note><backup><duration>4</duration></backup><note><pitch><step>E</step><octave>2</octave></pitch><duration>4</duration><voice>2</voice><type>whole</type><staff>2</staff></note></measure><measure number="2"><attributes/><note><rest/><duration>1</duration><voice>1</voice><type>quarter</type><staff>1</staff></note><note><rest/><duration>1</duration><voice>1</voice><type>quarter</type><staff>1</staff></note><note><rest/><duration>1</duration><voice>1</voice><type>quarter</type><staff>1</staff></note><note><rest/><duration>1</duration><voice>1</voice><type>quarter</type><staff>1</staff></note><backup><duration>4</duration></backup><note><pitch><step>F</step><octave>2</octave></pitch><duration>2</duration><voice>2</voice><type>half</type><staff>2</staff></note><note><pitch><step>G</step><octave>2</octave></pitch><duration>2</duration><voice>2</voice><type>half</type><staff>2</staff></note></measure><measure number="3"><attributes/><note><pitch><step>E</step><octave>4</octave></pitch><duration>3</duration><voice>1</voice><type>half</type><dot/><staff>1</staff></note><note><pitch><step>C</step><alter>1</alter><octave>4</octave></pitch><duration>1</duration><voice>1</voice><type>quarter</type><accidental>sharp</accidental><staff>1</staff></note><backup><duration>4</duration></backup><note><pitch><step>A</step><octave>2</octave></pitch><duration>3</duration><voice>2</voice><type>half</type><dot/><staff>2</staff></note><note><pitch><step>E</step><octave>2</octave></pitch><duration>1</duration><voice>2</voice><type>quarter</type><staff>2</staff></note></measure><measure number="4"><attributes/><note><pitch><step>E</step><octave>4</octave></pitch><duration>3</duration><voice>1</voice><type>half</type><dot/><staff>1</staff></note><note><pitch><step>C</step><alter>1</alter><octave>4</octave></pitch><duration>1</duration><voice>1</voice><type>quarter</type><accidental>sharp</accidental><staff>1</staff></note><backup><duration>4</duration></backup><note><pitch><step>A</step><octave>2</octave></pitch><duration>3</duration><voice>2</voice><type>half</type><dot/><staff>2</staff></note><note><pitch><step>E</step><octave>2</octave></pitch><duration>1</duration><voice>2</voice><type>quarter</type><staff>2</staff></note></measure><measure number="5"><attributes/><note><pitch><step>E</step><octave>4</octave></pitch><duration>3</duration><voice>1</voice><type>half</type><dot/><staff>1</staff></note><note><pitch><step>C</step><alter>1</alter><octave>4</octave></pitch><duration>1</duration><voice>1</voice><type>quarter</type><accidental>sharp</accidental><staff>1</staff></note><backup><duration>4</duration></backup><note><pitch><step>A</step><octave>2</octave></pitch><duration>3</duration><voice>2</voice><type>half</type><dot/><staff>2</staff></note><note><pitch><step>E</step><octave>2</octave></pitch><duration>1</duration><voice>2</voice><type>quarter</type><staff>2</staff></note></measure><measure number="6"><attributes/><note><pitch><step>E</step><octave>4</octave></pitch><duration>3</duration><voice>1</voice><type>half</type><dot/><staff>1</staff></note><note><pitch><step>C</step><alter>1</alter><octave>4</octave></pitch><duration>1</duration><voice>1</voice><type>quarter</type><accidental>sharp</accidental><staff>1</staff></note><backup><duration>4</duration></backup><note><pitch><step>A</step><octave>2</octave></pitch><duration>3</duration><voice>2</voice><type>half</type><dot/><staff>2</staff></note><note><pitch><step>E</step><octave>2</octave></pitch><duration>1</duration><voice>2</voice><type>quarter</type><staff>2</staff></note></measure><measure number="7"><attributes/><note><pitch><step>E</step><octave>4</octave></pitch><duration>3</duration><voice>1</voice><type>half</type><dot/><staff>1</staff></note><note><pitch><step>C</step><alter>1</alter><octave>4</octave></pitch><duration>1</duration><voice>1</voice><type>quarter</type><accidental>sharp</accidental><staff>1</staff></note><backup><duration>4</duration></backup><note><pitch><step>A</step><octave>2</octave></pitch><duration>3</duration><voice>2</voice><type>half</type><dot/><staff>2</staff></note><note><pitch><step>E</step><octave>2</octave></pitch><duration>1</duration><voice>2</voice><type>quarter</type><staff>2</staff></note></measure><measure number="8"><attributes/><note><pitch><step>E</step><octave>4</octave></pitch><duration>3</duration><voice>1</voice><type>half</type><dot/><staff>1</staff></note><note><pitch><step>C</step><alter>1</alter><octave>4</octave></pitch><duration>1</duration><voice>1</voice><type>quarter</type><accidental>sharp</accidental><staff>1</staff></note><backup><duration>4</duration></backup><note><pitch><step>A</step><octave>2</octave></pitch><duration>3</duration><voice>2</voice><type>half</type><dot/><staff>2</staff></note><note><pitch><step>E</step><octave>2</octave></pitch><duration>1</duration><voice>2</voice><type>quarter</type><staff>2</staff></note></measure><measure number="9"><attributes/><note><pitch><step>E</step><octave>4</octave></pitch><duration>3</duration><voice>1</voice><type>half</type><dot/><staff>1</staff></note><note><pitch><step>C</step><alter>1</alter><octave>4</octave></pitch><duration>1</duration><voice>1</voice><type>quarter</type><accidental>sharp</accidental><staff>1</staff></note><backup><duration>4</duration></backup><note><pitch><step>A</step><octave>2</octave></pitch><duration>3</duration><voice>2</voice><type>half</type><dot/><staff>2</staff></note><note><pitch><step>E</step><octave>2</octave></pitch><duration>1</duration><voice>2</voice><type>quarter</type><staff>2</staff></note></measure><measure number="10"><attributes/><note><pitch><step>E</step><octave>4</octave></pitch><duration>3</duration><voice>1</voice><type>half</type><dot/><staff>1</staff></note><note><pitch><step>C</step><alter>1</alter><octave>4</octave></pitch><duration>1</duration><voice>1</voice><type>quarter</type><accidental>sharp</accidental><staff>1</staff></note><backup><duration>4</duration></backup><note><pitch><step>A</step><octave>2</octave></pitch><duration>3</duration><voice>2</voice><type>half</type><dot/><staff>2</staff></note><note><pitch><step>E</step><octave>2</octave></pitch><duration>1</duration><voice>2</voice><type>quarter</type><staff>2</staff></note></measure><measure number="11"><attributes/><note><rest/><duration>1</duration><voice>1</voice><type>quarter</type><staff>1</staff></note><note><rest/><duration>1</duration><voice>1</voice><type>quarter</type><staff>1</staff></note><note><rest/><duration>1</duration><voice>1</voice><type>quarter</type><staff>1</staff></note><note><rest/><duration>1</duration><voice>1</voice><type>quarter</type><staff>1</staff></note><backup><duration>4</duration></backup><note><pitch><step>A</step><octave>2</octave></pitch><duration>3</duration><voice>2</voice><type>half</type><dot/><staff>2</staff></note><note><pitch><step>E</step><octave>2</octave></pitch><duration>1</duration><voice>2</voice><type>quarter</type><staff>2</staff></note></measure><measure number="12"><attributes/><note><rest/><duration>1</duration><voice>1</voice><type>quarter</type><staff>1</staff></note><note><rest/><duration>1</duration><voice>1</voice><type>quarter</type><staff>1</staff></note><note><rest/><duration>1</duration><voice>1</voice><type>quarter</type><staff>1</staff></note><note><rest/><duration>1</duration><voice>1</voice><type>quarter</type><staff>1</staff></note><backup><duration>4</duration></backup><note><pitch><step>A</step><octave>2</octave></pitch><duration>3</duration><voice>2</voice><type>half</type><dot/><staff>2</staff></note><note><pitch><step>E</step><octave>2</octave></pitch><duration>1</duration><voice>2</voice><type>quarter</type><staff>2</staff></note></measure><measure number="13"><attributes/><note><rest/><duration>1</duration><voice>1</voice><type>quarter</type><staff>1</staff></note><note><rest/><duration>1</duration><voice>1</voice><type>quarter</type><staff>1</staff></note><note><rest/><duration>1</duration><voice>1</voice><type>quarter</type><staff>1</staff></note><note><rest/><duration>1</duration><voice>1</voice><type>quarter</type><staff>1</staff></note><backup><duration>4</duration></backup><note><pitch><step>A</step><octave>2</octave></pitch><duration>3</duration><voice>2</voice><type>half</type><dot/><staff>2</staff></note><note><pitch><step>E</step><octave>2</octave></pitch><duration>1</duration><voice>2</voice><type>quarter</type><staff>2</staff></note></measure><measure number="14"><attributes/><note><rest/><duration>1</duration><voice>1</voice><type>quarter</type><staff>1</staff></note><note><rest/><duration>1</duration><voice>1</voice><type>quarter</type><staff>1</staff></note><note><rest/><duration>1</duration><voice>1</voice><type>quarter</type><staff>1</staff></note><note><rest/><duration>1</duration><voice>1</voice><type>quarter</type><staff>1</staff></note><backup><duration>4</duration></backup><note><pitch><step>A</step><octave>2</octave></pitch><duration>3</duration><voice>2</voice><type>half</type><dot/><staff>2</staff></note><note><pitch><step>E</step><octave>2</octave></pitch><duration>1</duration><voice>2</voice><type>quarter</type><staff>2</staff></note></measure><measure number="15"><attributes/><note><rest/><duration>1</duration><voice>1</voice><type>quarter</type><staff>1</staff></note><note><rest/><duration>1</duration><voice>1</voice><type>quarter</type><staff>1</staff></note><note><rest/><duration>1</duration><voice>1</voice><type>quarter</type><staff>1</staff></note><note><rest/><duration>1</duration><voice>1</voice><type>quarter</type><staff>1</staff></note><backup><duration>4</duration></backup><note><pitch><step>A</step><octave>2</octave></pitch><duration>3</duration><voice>2</voice><type>half</type><dot/><staff>2</staff></note><note><pitch><step>E</step><octave>2</octave></pitch><duration>1</duration><voice>2</voice><type>quarter</type><staff>2</staff></note></measure><measure number="16"><attributes/><note><rest/><duration>1</duration><voice>1</voice><type>quarter</type><staff>1</staff></note><note><rest/><duration>1</duration><voice>1</voice><type>quarter</type><staff>1</staff></note><note><rest/><duration>1</duration><voice>1</voice><type>quarter</type><staff>1</staff></note><note><rest/><duration>1</duration><voice>1</voice><type>quarter</type><staff>1</staff></note><backup><duration>4</duration></backup><note><pitch><step>A</step><octave>2</octave></pitch><duration>3</duration><voice>2</voice><type>half</type><dot/><staff>2</staff></note><note><pitch><step>E</step><octave>2</octave></pitch><duration>1</duration><voice>2</voice><type>quarter</type><staff>2</staff></note></measure><measure number="17"><attributes/><note><rest/><duration>1</duration><voice>1</voice><type>quarter</type><staff>1</staff></note><note><rest/><duration>1</duration><voice>1</voice><type>quarter</type><staff>1</staff></note><note><rest/><duration>1</duration><voice>1</voice><type>quarter</type><staff>1</staff></note><note><rest/><duration>1</duration><voice>1</voice><type>quarter</type><staff>1</staff></note><backup><duration>4</duration></backup><note><pitch><step>A</step><octave>2</octave></pitch><duration>3</duration><voice>2</voice><type>half</type><dot/><staff>2</staff></note><note><pitch><step>E</step><octave>2</octave></pitch><duration>1</duration><voice>2</voice><type>quarter</type><staff>2</staff></note></measure><measure number="18"><attributes/><note><rest/><duration>1</duration><voice>1</voice><type>quarter</type><staff>1</staff></note><note><rest/><duration>1</duration><voice>1</voice><type>quarter</type><staff>1</staff></note><note><rest/><duration>1</duration><voice>1</voice><type>quarter</type><staff>1</staff></note><note><rest/><duration>1</duration><voice>1</voice><type>quarter</type><staff>1</staff></note><backup><duration>4</duration></backup><note><pitch><step>A</step><octave>2</octave></pitch><duration>4</duration><voice>2</voice><type>whole</type><staff>2</staff></note><barline location="right"><bar-style>light-heavy</bar-style><repeat direction="backward" times="1" winged="none"/></barline></measure><measure number="19"><attributes/><note><rest/><duration>1</duration><voice>1</voice><type>quarter</type><staff>1</staff></note><note><rest/><duration>1</duration><voice>1</voice><type>quarter</type><staff>1</staff></note><note><rest/><duration>1</duration><voice>1</voice><type>quarter</type><staff>1</staff></note><note><rest/><duration>1</duration><voice>1</voice><type>quarter</type><staff>1</staff></note><backup><duration>4</duration></backup><note><rest/><duration>1</duration><voice>2</voice><type>quarter</type><staff>2</staff></note><note><rest/><duration>1</duration><voice>2</voice><type>quarter</type><staff>2</staff></note><note><rest/><duration>1</duration><voice>2</voice><type>quarter</type><staff>2</staff></note><note><rest/><duration>1</duration><voice>2</voice><type>quarter</type><staff>2</staff></note></measure><measure number="20"><attributes/><note><rest/><duration>1</duration><voice>1</voice><type>quarter</type><staff>1</staff></note><note><rest/><duration>1</duration><voice>1</voice><type>quarter</type><staff>1</staff></note><note><rest/><duration>1</duration><voice>1</voice><type>quarter</type><staff>1</staff></note><note><rest/><duration>1</duration><voice>1</voice><type>quarter</type><staff>1</staff></note><backup><duration>4</duration></backup><note><rest/><duration>1</duration><voice>2</voice><type>quarter</type><staff>2</staff></note><note><rest/><duration>1</duration><voice>2</voice><type>quarter</type><staff>2</staff></note><note><rest/><duration>1</duration><voice>2</voice><type>quarter</type><staff>2</staff></note><note><rest/><duration>1</duration><voice>2</voice><type>quarter</type><staff>2</staff></note><barline location="right"><bar-style>light-heavy</bar-style></barline></measure></part><part id="P5"><measure number="1"><attributes><divisions>4</divisions><key><fifths>0</fifths></key><time><beats>4</beats><beat-type>4</beat-type></time><clef><sign>F</sign><line>4</line></clef><staff-details><staff-lines>5</staff-lines></staff-details></attributes><note><pitch><step>E</step><octave>2</octave></pitch><duration>1</duration><voice>1</voice><type>16th</type><staff>1</staff><beam number="1">begin</beam><beam number="2">begin</beam></note><note><pitch><step>E</step><octave>2</octave></pitch><duration>1</duration><voice>1</voice><type>16th</type><staff>1</staff><beam number="1">continue</beam><beam number="2">continue</beam></note><note><pitch><step>E</step><octave>2</octave></pitch><duration>1</duration><voice>1</voice><type>16th</type><staff>1</staff><beam number="1">continue</beam><beam number="2">continue</beam></note><note><pitch><step>E</step><octave>2</octave></pitch><duration>1</duration><voice>1</voice><type>16th</type><staff>1</staff><beam number="1">end</beam><beam number="2">end</beam></note><note><pitch><step>E</step><octave>2</octave></pitch><duration>1</duration><voice>1</voice><type>16th</type><staff>1</staff><beam number="1">begin</beam><beam number="2">begin</beam></note><note><pitch><step>E</step><octave>2</octave></pitch><duration>1</duration><voice>1</voice><type>16th</type><staff>1</staff><beam number="1">continue</beam><beam number="2">continue</beam></note><note><pitch><step>E</step><octave>2</octave></pitch><duration>1</duration><voice>1</voice><type>16th</type><staff>1</staff><beam number="1">continue</beam><beam number="2">continue</beam></note><note><pitch><step>E</step><octave>2</octave></pitch><duration>1</duration><voice>1</voice><type>16th</type><staff>1</staff><beam number="1">end</beam><beam number="2">end</beam></note><note><pitch><step>E</step><octave>2</octave></pitch><duration>1</duration><voice>1</voice><type>16th</type><staff>1</staff><beam number="1">begin</beam><beam number="2">begin</beam></note><note><pitch><step>E</step><octave>2</octave></pitch><duration>1</duration><voice>1</voice><type>16th</type><staff>1</staff><beam number="1">continue</beam><beam number="2">continue</beam></note><note><pitch><step>E</step><octave>2</octave></pitch><duration>1</duration><voice>1</voice><type>16th</type><staff>1</staff><beam number="1">continue</beam><beam number="2">continue</beam></note><note><pitch><step>E</step><octave>2</octave></pitch><duration>1</duration><voice>1</voice><type>16th</type><staff>1</staff><beam number="1">end</beam><beam number="2">end</beam></note><note><pitch><step>E</step><octave>2</octave></pitch><duration>1</duration><voice>1</voice><type>16th</type><staff>1</staff><beam number="1">begin</beam><beam number="2">begin</beam></note><note><pitch><step>E</step><octave>2</octave></pitch><duration>1</duration><voice>1</voice><type>16th</type><staff>1</staff><beam number="1">continue</beam><beam number="2">continue</beam></note><note><pitch><step>E</step><octave>2</octave></pitch><duration>1</duration><voice>1</voice><type>16th</type><staff>1</staff><beam number="1">continue</beam><beam number="2">continue</beam></note><note><pitch><step>E</step><octave>2</octave></pitch><duration>1</duration><voice>1</voice><type>16th</type><staff>1</staff><beam number="1">end</beam><beam number="2">end</beam></note></measure><measure number="2"><attributes/><note><pitch><step>F</step><octave>2</octave></pitch><duration>1</duration><voice>1</voice><type>16th</type><staff>1</staff><beam number="1">begin</beam><beam number="2">begin</beam></note><note><pitch><step>F</step><octave>2</octave></pitch><duration>1</duration><voice>1</voice><type>16th</type><staff>1</staff><beam number="1">continue</beam><beam number="2">continue</beam></note><note><pitch><step>F</step><octave>2</octave></pitch><duration>1</duration><voice>1</voice><type>16th</type><staff>1</staff><beam number="1">continue</beam><beam number="2">continue</beam></note><note><pitch><step>F</step><octave>2</octave></pitch><duration>1</duration><voice>1</voice><type>16th</type><staff>1</staff><beam number="1">end</beam><beam number="2">end</beam></note><note><pitch><step>F</step><octave>2</octave></pitch><duration>1</duration><voice>1</voice><type>16th</type><staff>1</staff><beam number="1">begin</beam><beam number="2">begin</beam></note><note><pitch><step>F</step><octave>2</octave></pitch><duration>1</duration><voice>1</voice><type>16th</type><staff>1</staff><beam number="1">continue</beam><beam number="2">continue</beam></note><note><pitch><step>F</step><octave>2</octave></pitch><duration>1</duration><voice>1</voice><type>16th</type><staff>1</staff><beam number="1">continue</beam><beam number="2">continue</beam></note><note><pitch><step>F</step><octave>2</octave></pitch><duration>1</duration><voice>1</voice><type>16th</type><staff>1</staff><beam number="1">end</beam><beam number="2">end</beam></note><note><pitch><step>G</step><octave>2</octave></pitch><duration>1</duration><voice>1</voice><type>16th</type><staff>1</staff><beam number="1">begin</beam><beam number="2">begin</beam></note><note><pitch><step>G</step><octave>2</octave></pitch><duration>1</duration><voice>1</voice><type>16th</type><staff>1</staff><beam number="1">continue</beam><beam number="2">continue</beam></note><note><pitch><step>G</step><octave>2</octave></pitch><duration>1</duration><voice>1</voice><type>16th</type><staff>1</staff><beam number="1">continue</beam><beam number="2">continue</beam></note><note><pitch><step>G</step><octave>2</octave></pitch><duration>1</duration><voice>1</voice><type>16th</type><staff>1</staff><beam number="1">end</beam><beam number="2">end</beam></note><note><pitch><step>G</step><octave>2</octave></pitch><duration>1</duration><voice>1</voice><type>16th</type><staff>1</staff><beam number="1">begin</beam><beam number="2">begin</beam></note><note><pitch><step>G</step><octave>2</octave></pitch><duration>1</duration><voice>1</voice><type>16th</type><staff>1</staff><beam number="1">continue</beam><beam number="2">continue</beam></note><note><pitch><step>G</step><octave>2</octave></pitch><duration>1</duration><voice>1</voice><type>16th</type><staff>1</staff><beam number="1">continue</beam><beam number="2">continue</beam></note><note><pitch><step>G</step><octave>2</octave></pitch><duration>1</duration><voice>1</voice><type>16th</type><staff>1</staff><beam number="1">end</beam><beam number="2">end</beam></note></measure><measure number="3"><attributes/><note><pitch><step>A</step><octave>2</octave></pitch><duration>8</duration><voice>1</voice><type>half</type><staff>1</staff></note><note><pitch><step>A</step><octave>2</octave></pitch><duration>8</duration><voice>1</voice><type>half</type><staff>1</staff></note></measure><measure number="4"><attributes/><note><pitch><step>A</step><octave>2</octave></pitch><duration>8</duration><voice>1</voice><type>half</type><staff>1</staff></note><note><pitch><step>A</step><octave>2</octave></pitch><duration>8</duration><voice>1</voice><type>half</type><staff>1</staff></note></measure><measure number="5"><attributes/><note><pitch><step>A</step><octave>2</octave></pitch><duration>8</duration><voice>1</voice><type>half</type><staff>1</staff></note><note><pitch><step>A</step><octave>2</octave></pitch><duration>8</duration><voice>1</voice><type>half</type><staff>1</staff></note></measure><measure number="6"><attributes/><note><pitch><step>A</step><octave>2</octave></pitch><duration>8</duration><voice>1</voice><type>half</type><staff>1</staff></note><note><pitch><step>A</step><octave>2</octave></pitch><duration>8</duration><voice>1</voice><type>half</type><staff>1</staff></note></measure><measure number="7"><attributes/><note><pitch><step>A</step><octave>2</octave></pitch><duration>8</duration><voice>1</voice><type>half</type><staff>1</staff></note><note><pitch><step>A</step><octave>2</octave></pitch><duration>8</duration><voice>1</voice><type>half</type><staff>1</staff></note></measure><measure number="8"><attributes/><note><pitch><step>A</step><octave>2</octave></pitch><duration>8</duration><voice>1</voice><type>half</type><staff>1</staff></note><note><pitch><step>A</step><octave>2</octave></pitch><duration>8</duration><voice>1</voice><type>half</type><staff>1</staff></note></measure><measure number="9"><attributes/><note><pitch><step>A</step><octave>2</octave></pitch><duration>8</duration><voice>1</voice><type>half</type><staff>1</staff></note><note><pitch><step>A</step><octave>2</octave></pitch><duration>8</duration><voice>1</voice><type>half</type><staff>1</staff></note></measure><measure number="10"><attributes/><note><pitch><step>A</step><octave>2</octave></pitch><duration>4</duration><voice>1</voice><type>quarter</type><staff>1</staff></note><note><pitch><step>A</step><octave>2</octave></pitch><duration>2</duration><voice>1</voice><type>eighth</type><staff>1</staff><beam number="1">begin</beam></note><note><pitch><step>A</step><octave>2</octave></pitch><duration>1</duration><voice>1</voice><type>16th</type><staff>1</staff><beam number="1">continue</beam><beam number="2">begin</beam></note><note><pitch><step>A</step><octave>2</octave></pitch><duration>1</duration><voice>1</voice><type>16th</type><staff>1</staff><beam number="1">end</beam><beam number="2">end</beam></note><note><pitch><step>A</step><octave>2</octave></pitch><duration>2</duration><voice>1</voice><type>eighth</type><staff>1</staff><beam number="1">begin</beam></note><note><pitch><step>A</step><octave>2</octave></pitch><duration>1</duration><voice>1</voice><type>16th</type><staff>1</staff><beam number="1">continue</beam><beam number="2">begin</beam></note><note><pitch><step>A</step><octave>2</octave></pitch><duration>1</duration><voice>1</voice><type>16th</type><staff>1</staff><beam number="1">end</beam><beam number="2">end</beam></note><note><pitch><step>A</step><octave>2</octave></pitch><duration>1</duration><voice>1</voice><type>16th</type><staff>1</staff><beam number="1">begin</beam><beam number="2">begin</beam></note><note><pitch><step>A</step><octave>2</octave></pitch><duration>1</duration><voice>1</voice><type>16th</type><staff>1</staff><beam number="1">continue</beam><beam number="2">end</beam></note><note><pitch><step>A</step><octave>2</octave></pitch><duration>2</duration><voice>1</voice><type>eighth</type><staff>1</staff><beam number="1">end</beam></note></measure><measure number="11"><attributes/><note><pitch><step>A</step><octave>2</octave></pitch><duration>4</duration><voice>1</voice><type>quarter</type><staff>1</staff></note><note><pitch><step>A</step><octave>2</octave></pitch><duration>4</duration><voice>1</voice><type>quarter</type><staff>1</staff></note><note><pitch><step>A</step><octave>2</octave></pitch><duration>4</duration><voice>1</voice><type>quarter</type><staff>1</staff></note><note><pitch><step>A</step><octave>2</octave></pitch><duration>4</duration><voice>1</voice><type>quarter</type><staff>1</staff></note></measure><measure number="12"><attributes/><note><pitch><step>A</step><octave>2</octave></pitch><duration>4</duration><voice>1</voice><type>quarter</type><staff>1</staff></note><note><pitch><step>A</step><octave>2</octave></pitch><duration>4</duration><voice>1</voice><type>quarter</type><staff>1</staff></note><note><pitch><step>A</step><octave>2</octave></pitch><duration>4</duration><voice>1</voice><type>quarter</type><staff>1</staff></note><note><pitch><step>A</step><octave>2</octave></pitch><duration>4</duration><voice>1</voice><type>quarter</type><staff>1</staff></note></measure><measure number="13"><attributes/><note><pitch><step>A</step><octave>2</octave></pitch><duration>4</duration><voice>1</voice><type>quarter</type><staff>1</staff></note><note><pitch><step>A</step><octave>2</octave></pitch><duration>4</duration><voice>1</voice><type>quarter</type><staff>1</staff></note><note><pitch><step>A</step><octave>2</octave></pitch><duration>4</duration><voice>1</voice><type>quarter</type><staff>1</staff></note><note><pitch><step>A</step><octave>2</octave></pitch><duration>4</duration><voice>1</voice><type>quarter</type><staff>1</staff></note></measure><measure number="14"><attributes/><note><pitch><step>A</step><octave>2</octave></pitch><duration>4</duration><voice>1</voice><type>quarter</type><staff>1</staff></note><note><pitch><step>A</step><octave>2</octave></pitch><duration>4</duration><voice>1</voice><type>quarter</type><staff>1</staff></note><note><pitch><step>A</step><octave>2</octave></pitch><duration>4</duration><voice>1</voice><type>quarter</type><staff>1</staff></note><note><pitch><step>A</step><octave>2</octave></pitch><duration>4</duration><voice>1</voice><type>quarter</type><staff>1</staff></note></measure><measure number="15"><attributes/><note><pitch><step>A</step><octave>2</octave></pitch><duration>4</duration><voice>1</voice><type>quarter</type><staff>1</staff></note><note><pitch><step>A</step><octave>2</octave></pitch><duration>4</duration><voice>1</voice><type>quarter</type><staff>1</staff></note><note><pitch><step>A</step><octave>2</octave></pitch><duration>4</duration><voice>1</voice><type>quarter</type><staff>1</staff></note><note><pitch><step>A</step><octave>2</octave></pitch><duration>4</duration><voice>1</voice><type>quarter</type><staff>1</staff></note></measure><measure number="16"><attributes/><note><pitch><step>A</step><octave>2</octave></pitch><duration>4</duration><voice>1</voice><type>quarter</type><staff>1</staff></note><note><pitch><step>A</step><octave>2</octave></pitch><duration>4</duration><voice>1</voice><type>quarter</type><staff>1</staff></note><note><pitch><step>A</step><octave>2</octave></pitch><duration>4</duration><voice>1</voice><type>quarter</type><staff>1</staff></note><note><pitch><step>A</step><octave>2</octave></pitch><duration>4</duration><voice>1</voice><type>quarter</type><staff>1</staff></note></measure><measure number="17"><attributes/><note><pitch><step>A</step><octave>2</octave></pitch><duration>4</duration><voice>1</voice><type>quarter</type><staff>1</staff></note><note><pitch><step>A</step><octave>2</octave></pitch><duration>4</duration><voice>1</voice><type>quarter</type><staff>1</staff></note><note><pitch><step>A</step><octave>2</octave></pitch><duration>4</duration><voice>1</voice><type>quarter</type><staff>1</staff></note><note><pitch><step>A</step><octave>2</octave></pitch><duration>4</duration><voice>1</voice><type>quarter</type><staff>1</staff></note></measure><measure number="18"><attributes/><note><rest/><duration>4</duration><voice>1</voice><type>quarter</type><staff>1</staff></note><note><rest/><duration>4</duration><voice>1</voice><type>quarter</type><staff>1</staff></note><note><pitch><step>E</step><octave>2</octave></pitch><duration>1</duration><voice>1</voice><type>16th</type><staff>1</staff><beam number="1">begin</beam><beam number="2">begin</beam></note><note><pitch><step>E</step><octave>2</octave></pitch><duration>1</duration><voice>1</voice><type>16th</type><staff>1</staff><beam number="1">continue</beam><beam number="2">continue</beam></note><note><pitch><step>E</step><octave>2</octave></pitch><duration>1</duration><voice>1</voice><type>16th</type><staff>1</staff><beam number="1">continue</beam><beam number="2">continue</beam></note><note><pitch><step>E</step><octave>2</octave></pitch><duration>1</duration><voice>1</voice><type>16th</type><staff>1</staff><beam number="1">end</beam><beam number="2">end</beam></note><note><pitch><step>E</step><octave>2</octave></pitch><duration>1</duration><voice>1</voice><type>16th</type><staff>1</staff><beam number="1">begin</beam><beam number="2">begin</beam></note><note><pitch><step>E</step><octave>2</octave></pitch><duration>1</duration><voice>1</voice><type>16th</type><staff>1</staff><beam number="1">continue</beam><beam number="2">continue</beam></note><note><pitch><step>E</step><octave>2</octave></pitch><duration>1</duration><voice>1</voice><type>16th</type><staff>1</staff><beam number="1">continue</beam><beam number="2">continue</beam></note><note><pitch><step>E</step><octave>2</octave></pitch><duration>1</duration><voice>1</voice><type>16th</type><staff>1</staff><beam number="1">end</beam><beam number="2">end</beam></note><barline location="right"><bar-style>light-heavy</bar-style><repeat direction="backward" times="1" winged="none"/></barline></measure><measure number="19"><attributes/><note><pitch><step>A</step><octave>2</octave></pitch><duration>4</duration><voice>1</voice><type>quarter</type><staff>1</staff></note><note><rest/><duration>4</duration><voice>1</voice><type>quarter</type><staff>1</staff></note><note><rest/><duration>4</duration><voice>1</voice><type>quarter</type><staff>1</staff></note><note><rest/><duration>4</duration><voice>1</voice><type>quarter</type><staff>1</staff></note></measure><measure number="20"><attributes/><note><rest/><duration>4</duration><voice>1</voice><type>quarter</type><staff>1</staff></note><note><rest/><duration>4</duration><voice>1</voice><type>quarter</type><staff>1</staff></note><note><rest/><duration>4</duration><voice>1</voice><type>quarter</type><staff>1</staff></note><note><rest/><duration>4</duration><voice>1</voice><type>quarter</type><staff>1</staff></note><barline location="right"><bar-style>light-heavy</bar-style></barline></measure></part></score-partwise>